<svg xmlns="http://www.w3.org/2000/svg" viewBox="0 0 100 30">
  <path fill="#FF9900" d="M55.2 22.7c-4.9 3.6-12 5.5-18.1 5.5-8.6 0-16.3-3.2-22.1-8.5-.5-.4 0-1 .5-.7 6.3 3.7 14.1 5.9 22.1 5.9 5.4 0 11.4-1.1 16.9-3.5.8-.3 1.5.6.7 1.3z"/>
  <path fill="#FF9900" d="M57.1 20.5c-.6-.8-4.2-.4-5.8-.2-.5.1-.6-.4-.1-.7 2.8-2 7.5-1.4 8-0.7.5.7-.1 5.4-2.8 7.6-.4.3-.8.2-.6-.3.6-1.5 2-4.9 1.3-5.7z"/>
  <text x="5" y="18" font-family="Arial, sans-serif" font-size="14" font-weight="bold" fill="#232F3E">amazon</text>
</svg>
