<?xml version="1.0" encoding="UTF-8" standalone="no"?>
<!-- Created with Inkscape (http://www.inkscape.org/) -->

<svg
   version="1.1"
   id="svg1"
   width="512"
   height="512"
   viewBox="0 0 512 512"
   sodipodi:docname="owl-box-mirror1.svg"
   inkscape:version="1.4.2 (2aeb623e1d, 2025-05-12)"
   xmlns:inkscape="http://www.inkscape.org/namespaces/inkscape"
   xmlns:sodipodi="http://sodipodi.sourceforge.net/DTD/sodipodi-0.dtd"
   xmlns="http://www.w3.org/2000/svg"
   xmlns:svg="http://www.w3.org/2000/svg">
  <defs
     id="defs1">
    <clipPath
       clipPathUnits="userSpaceOnUse"
       id="clipPath53">
      <rect
         style="fill:#000000;fill-opacity:0.0218068;stroke:#000000;stroke-width:0.998051;stroke-opacity:1"
         id="rect54"
         width="511.00195"
         height="511.00195"
         x="0.49902534"
         y="0.49902534" />
    </clipPath>
  </defs>
  <sodipodi:namedview
     id="namedview1"
     pagecolor="#ffffff"
     bordercolor="#000000"
     borderopacity="0.25"
     inkscape:showpageshadow="2"
     inkscape:pageopacity="0.0"
     inkscape:pagecheckerboard="0"
     inkscape:deskcolor="#d1d1d1"
     showgrid="true"
     inkscape:zoom="1.1089975"
     inkscape:cx="255.63628"
     inkscape:cy="259.24315"
     inkscape:window-width="1920"
     inkscape:window-height="1011"
     inkscape:window-x="0"
     inkscape:window-y="32"
     inkscape:window-maximized="1"
     inkscape:current-layer="layer8"
     inkscape:document-units="px"
     showborder="false"
     showguides="true">
    <inkscape:grid
       id="grid53"
       units="px"
       originx="0"
       originy="0"
       spacingx="1"
       spacingy="1"
       empcolor="#0099e5"
       empopacity="0.30196078"
       color="#0099e5"
       opacity="0.14901961"
       empspacing="5"
       enabled="true"
       visible="true" />
    <sodipodi:guide
       position="249.77513,511.09828"
       orientation="1,0"
       id="guide1"
       inkscape:locked="false" />
  </sodipodi:namedview>
  <g
     inkscape:groupmode="layer"
     id="layer1"
     inkscape:label="Image 1">
    <g
       inkscape:groupmode="layer"
       id="layer2"
       inkscape:label="circle"
       transform="translate(-34.277264,-6.3142329)" />
  </g>
  <g
     inkscape:groupmode="layer"
     inkscape:label="Image"
     id="g1">
    <path
       id="path1"
       style="display:none;fill:#800000;stroke-width:3.42124"
       d="m 354.62861,3.3405414 c -49.10778,-1.9835322 -85.47266,5.9884853 -95.01614,20.8319206 -7.12659,11.084336 -12.72679,11.179865 -23.96489,0.403159 -4.86856,-4.668669 -14.99354,-9.682975 -22.50475,-11.143534 -7.51121,-1.46057 -17.87142,-3.5710498 -23.02219,-4.6867135 -12.07492,-2.6154686 -39.62963,3.9516035 -39.62963,9.4427185 0,2.323055 6.94069,6.735108 15.42374,9.808071 29.63876,10.736559 47.07752,19.275004 58.17211,28.485623 6.14883,5.104684 14.51539,11.358659 18.59213,13.896348 4.07674,2.537686 8.31939,4.617419 9.42717,4.617419 4.7475,0 18.14558,-10.386834 18.14558,-14.06643 0,-5.169148 19.93333,-21.742913 36.29111,-30.173847 6.98605,-3.600662 21.95726,-7.456694 33.26453,-8.567106 26.68836,-2.620893 32.05951,-4.637014 32.05951,-12.044343 0,-5.0358056 -3.02007,-6.2289933 -17.23828,-6.8032856 z m 50.86431,79.1449316 c -6.7696,0.01316 -14.26461,0.319784 -20.85325,0.919702 -39.63325,3.608681 -63.42151,25.466225 -61.73035,56.725555 1.21954,22.54099 8.46085,28.39744 35.12158,28.39744 23.77091,0 27.75833,-3.35232 21.95189,-18.43817 -3.49197,-9.07253 -6.96727,-9.93988 -24.33349,-6.06626 -6.90772,1.54081 -9.1862,0.79226 -9.1862,-3.01109 0,-17.24129 25.04894,-35.90336 52.14016,-38.84804 18.11018,-1.96848 37.86026,7.09374 53.79877,24.68711 9.0873,10.03087 10.73484,15.10341 12.56015,38.70316 1.88572,24.38109 1.31515,28.0337 -5.55001,35.6984 -8.3561,9.3293 -36.03408,26.48737 -64.16867,39.77404 -24.93791,11.77697 -27.53684,19.305 -22.3063,64.57454 0.99249,8.59 13.62039,19.41301 34.47657,29.55021 28.74061,13.96943 31.94212,18.57506 32.59115,46.85449 0.54123,23.58361 0.0689,25.17392 -9.7674,32.52982 -5.68848,4.25389 -17.81495,9.5969 -26.94192,11.86793 -14.88873,3.70469 -17.82229,3.48879 -28.53674,-2.07246 -6.56807,-3.4091 -12.47528,-8.65812 -13.12719,-11.66639 -0.98864,-4.5623 1.87371,-5.46781 17.23121,-5.46781 10.12643,0 18.40781,-0.658 18.40781,-1.46146 0,-3.63604 -9.29476,-19.74098 -12.6239,-21.87132 -6.61827,-4.23507 -39.92595,-2.64079 -47.85185,2.29296 0,0 -7.486,7.40901 -6.45017,22.8477 0.66705,9.9428 3.19881,20.2087 5.62794,22.80993 3.7774,4.04497 17.82334,10.59895 39.5233,18.44447 11.34393,4.10134 59.71865,-0.12288 72.2775,-6.31194 29.62154,-14.59737 36.59234,-25.92021 36.51794,-59.32718 -0.0532,-23.98955 -10.64208,-39.66913 -39.8777,-59.05635 -12.86805,-8.53331 -24.24919,-16.51582 -25.2904,-17.73895 -1.04118,-1.22315 -4.94353,-3.71546 -8.67586,-5.53713 -4.5664,-2.22871 -7.07634,-7.50358 -7.66932,-16.12631 -1.46816,-21.34902 3.9595,-27.71171 38.34668,-44.98355 27.40347,-13.76407 41.57248,-25.39014 49.5955,-40.68746 4.49104,-8.5625 8.16552,-17.10231 8.16552,-18.97364 0,-1.87134 2.02481,-6.28434 4.50096,-9.80808 3.58339,-5.09936 3.58339,-7.71349 0,-12.81285 -2.47615,-3.52371 -4.50096,-10.24917 -4.50096,-14.94205 0,-8.34288 -10.57314,-26.52195 -21.66128,-37.248 -7.7966,-7.541997 -39.26744,-20.856331 -55.23764,-23.370557 -3.68258,-0.579737 -9.72444,-0.863708 -16.49403,-0.85041 z m -296.2193,10.406509 c -38.91293,0.150722 -41.120622,0.535725 -58.583224,10.280528 -17.662534,9.85636 -24.461744,18.13543 -36.106844,43.9757 -7.0320951,15.60424 -7.1150287,28.66071 -0.311886,49.01519 6.395731,19.13387 24.880739,45.93229 33.689794,48.84512 22.088311,7.30378 44.476338,28.09587 44.407033,41.24175 -0.07008,13.23478 -1.474991,14.56491 -33.604754,31.79907 -45.83556,24.58582 -54.0457819,35.48932 -53.8342045,71.50382 0.077851,13.24804 2.0346229,27.35259 4.3521015,31.34552 5.36314,9.24039 23.244563,24.53329 39.59419,33.85897 6.986412,3.98497 15.967886,6.54458 19.960121,5.68831 3.992025,-0.85621 17.559969,-1.57422 30.152846,-1.60002 13.867187,-0.0258 22.037137,-1.27875 20.718527,-3.17488 -1.19746,-1.72191 2.38227,-4.11448 7.95287,-5.31666 5.57065,-1.20209 16.26149,-7.05014 23.75225,-12.99551 7.49079,-5.94543 15.13958,-10.80966 16.99728,-10.80966 8.51209,0 4.37349,-37.47376 -4.71356,-42.68436 -2.2728,-1.30328 -12.19262,-2.39315 -22.04404,-2.41896 -13.44706,-0.037 -20.00525,1.69602 -26.3111,6.96077 -15.10633,12.61238 -9.32278,23.12314 10.83777,19.69807 13.38204,-2.27347 16.90452,6.674 6.49979,16.51686 -8.26409,7.81781 -29.66584,14.68007 -42.287705,13.55617 -13.691537,-1.21918 -32.305021,-9.30495 -44.236883,-19.21927 -6.11277,-5.07919 -10.492609,-10.30198 -12.204958,-14.25497 -1.855439,-6.63768 -0.939723,-11.82106 1.466469,-19.11897 9.061094,-17.26576 12.007334,-36.2724 44.307774,-56.2531 10.892923,-6.73825 30.847453,-29.27435 30.847453,-34.83536 0,-1.62349 2.3838,-5.06656 5.29485,-7.6537 4.63779,-4.12169 4.19061,-6.66571 -3.59369,-20.54842 C 105.88145,254.89709 96.784961,246.13726 79.850866,235.08703 66.903067,226.63804 53.136992,215.77342 49.265673,210.94167 41.073132,200.7165 34.403007,172.01861 36.861476,157.57362 c 6.244798,-36.692 59.039737,-55.99277 89.508674,-32.72509 11.94189,9.11948 14.08354,26.68417 2.58716,21.2162 -9.4608,-4.49983 -20.97721,-4.21766 -24.3264,0.59843 -1.50672,2.1666 -2.40176,8.33492 -1.99178,13.70736 0.83673,10.96474 16.1228,24.25585 27.89173,24.24618 12.91667,-0.0105 27.57343,-11.63471 36.66682,-29.07776 8.56808,-16.4353 8.68947,-17.63746 3.43067,-33.71408 C 161.89381,95.122647 156.7667,92.708015 109.27362,92.891982 Z m 147.24137,51.043568 c -6.88861,0.17896 -14.59957,9.774 -18.57795,29.06515 -4.53567,21.9929 -4.33399,21.73193 -40.72119,53.7208 -24.69975,21.71379 -27.85482,25.87184 -29.3944,38.70316 -2.54437,21.20543 4.41972,32.67859 31.20185,51.38373 15.41051,10.76292 26.63533,21.71234 31.95322,31.17542 4.50881,8.02336 12.33417,16.58688 17.38712,19.03031 5.05297,2.4434 7.14483,4.50236 4.6498,4.57332 -2.495,0.0709 -4.53639,1.58368 -4.53639,3.35756 0,4.88158 9.40819,3.85739 14.48104,-1.57485 2.46373,-2.63823 3.54883,-6.95106 2.40994,-9.58758 -1.15202,-2.66808 0.67432,-6.21843 4.12529,-8.00645 3.41014,-1.76691 4.38716,-3.25961 2.16894,-3.31349 -8.85794,-0.21544 -0.12629,-16.40091 12.61687,-23.38944 17.64115,-9.67486 40.21141,-31.59519 40.7708,-39.59765 0.24787,-3.54779 1.10665,-11.5303 1.90669,-17.73894 0.80001,-6.2086 -0.55192,-15.64251 -2.99826,-20.96418 -4.21437,-9.16774 -6.80347,-12.74198 -15.85611,-21.88392 -18.313,-18.49365 -37.85051,-46.30118 -37.85051,-53.86571 0,-20.80114 -6.40368,-31.27778 -13.73675,-31.08724 z m -5.26649,64.59347 c 0.20395,0.006 0.37579,0.0456 0.51036,0.11967 1.67298,0.91883 4.03691,6.08954 5.25226,11.48998 1.21532,5.40049 5.09981,10.72221 8.63334,11.82386 10.51539,3.2785 30.01106,21.23234 30.01106,27.63521 0,9.09682 -13.65305,30.85235 -21.78883,34.72195 -6.71216,3.1925 -7.25042,2.42695 -7.35748,-10.37502 -0.10742,-12.85287 -0.48858,-13.38139 -5.44367,-7.55921 -2.93052,3.44336 -5.33026,9.5213 -5.33026,13.51207 0,3.99111 -1.67234,8.17876 -3.72126,9.30416 -2.04897,1.12539 -3.27378,4.42618 -2.72183,7.33243 1.25999,6.63456 -10.07432,9.09946 -12.80113,2.78431 -1.10681,-2.56331 -8.56282,-7.93048 -16.57199,-11.93097 -21.32578,-10.65197 -28.21409,-28.61084 -18.40077,-47.98836 4.89158,-9.65892 43.40255,-41.07237 49.7302,-40.8701 z m -16.56493,206.66876 c -2.28042,0.11289 -3.20519,0.48546 -2.22565,1.08979 5.27074,3.25205 4.23314,7.25703 -5.58544,21.55007 -10.07766,14.67069 -37.81295,40.31579 -43.59896,40.31579 -2.11737,0 -6.6842,1.30926 -10.15014,2.91029 -3.46596,1.60097 -13.15482,4.7102 -21.53372,6.91037 -20.79477,5.46038 -24.17573,15.91782 -6.54231,20.23979 3.99202,0.97847 15.86583,1.38606 26.38902,0.9071 14.3362,-0.65254 21.61518,-2.86542 29.03292,-8.8191 5.44486,-4.37022 14.39311,-9.93316 19.88216,-12.36558 5.48899,-2.43247 9.98002,-6.0683 9.98002,-8.07577 0,-6.65225 9.00351,-21.00768 13.19101,-21.03349 5.09106,-0.0323 15.84191,14.10149 15.84191,20.82562 0,2.875 3.18669,4.9513 7.59845,4.9513 4.54588,0 8.36246,2.59117 9.49809,6.45052 1.04392,3.5478 4.03707,6.45052 6.65572,6.45052 2.61866,0 6.9593,1.95164 9.64694,4.34024 10.87232,9.6624 53.69951,10.16987 53.69951,0.63621 0,-2.30144 -7.75723,-7.1841 -17.23827,-10.85375 -9.48106,-3.66964 -24.83719,-12.59856 -34.12216,-19.83661 -16.2377,-12.65801 -30.87266,-35.96696 -26.51663,-42.23079 1.15228,-1.65695 0.36306,-3.01107 -1.75075,-3.01107 -2.11383,0 -3.84178,-1.40626 -3.84178,-3.12448 0,-1.71819 2.44965,-2.28723 5.44366,-1.26618 0.26493,0.0904 0.52463,0.16416 0.77971,0.22673 -0.10062,-0.17545 -0.19704,-0.35664 -0.29068,-0.54803 -0.43426,-0.88717 -0.84359,-1.78756 -1.3893,-2.62682 -0.47451,-0.90581 -1.00472,-1.8066 -1.64443,-2.63313 -0.99953,-0.25448 -1.77234,-0.66021 -2.17604,-1.14648 -0.66409,0.0226 -1.32938,0.0519 -1.99178,0.0945 -0.0621,0.0162 -0.11572,0.029 -0.16293,0.0377 -0.70355,0.28253 -1.68079,-0.0477 -2.34616,0.28963 -0.50211,0.12094 -0.99253,0.15931 -1.48852,0.15738 0.0255,0.79002 -3.77499,0.5223 -12.6877,-0.34645 -4.43918,-0.43272 -8.0753,-0.57918 -10.35577,-0.46619 z"
       sodipodi:nodetypes="ssssssssssssssssssssssssssssssssssssssssscsssssscsssssssssscscssssscssssscsssssssssssscssssscssssscssssssscsccssssssscsssssssssssssscccsssssssscsssssssssssscccccccccscc"
       clip-path="url(#clipPath53)"
       transform="matrix(0.88062286,0,0,0.88062286,30.560546,30.560546)" />
    <rect
       style="display:inline;fill:#800000;fill-opacity:0.0218068;stroke:#800000;stroke-width:11.7741;stroke-linecap:butt;stroke-linejoin:round;stroke-dasharray:none;stroke-opacity:1;paint-order:fill markers stroke"
       id="rect55"
       width="496.22589"
       height="496.22589"
       x="7.4870501"
       y="7.7870502" />
  </g>
  <g
     inkscape:groupmode="layer"
     id="layer8"
     inkscape:label="Image 2"
     style="display:inline">
    <path
       d="m 127.61324,103.67555 c -34.267621,0.13606 -36.211761,0.4836 -51.589731,9.28015 -15.55403,8.89725 -21.54157,16.37071 -31.79651,39.69651 -6.19262,14.08582 -6.26566,25.87179 -0.27465,44.24562 5.63222,17.27199 21.91054,41.46271 29.668,44.0921 19.45147,6.59307 39.166881,25.36192 39.105851,37.2286 -0.0617,11.94693 -1.29891,13.14762 -29.593121,28.70477 -40.36384,22.19341 -47.59395,32.03591 -47.40763,64.54591 0.0686,11.95891 1.79174,24.69097 3.83256,28.29536 4.7229,8.34122 20.46969,22.146 34.86755,30.56422 6.15239,3.59719 14.06169,5.90774 17.57734,5.13479 3.51547,-0.77289 15.463711,-1.42104 26.553281,-1.44433 12.21177,-0.0233 19.40641,-1.15432 18.24521,-2.86593 -1.05451,-1.55436 2.09788,-3.71412 7.00348,-4.79931 4.90564,-1.08512 14.32024,-6.36411 20.91678,-11.73095 6.59656,-5.36689 13.33226,-9.75779 14.96819,-9.75779 7.49594,0 3.85139,-33.82726 -4.15087,-38.53082 -2.00148,-1.17646 -10.7371,-2.16029 -19.41248,-2.18359 -11.84179,-0.0334 -17.61709,1.53099 -23.17016,6.28344 -13.30298,11.3851 -8.20985,20.87307 9.54399,17.78129 11.78453,-2.05224 14.8865,6.02457 5.72386,14.90963 -7.27755,7.05708 -26.12442,13.25159 -37.23952,12.23706 -12.057081,-1.10055 -28.448541,-8.39952 -38.956011,-17.34909 -5.38304,-4.58494 -9.24003,-9.29951 -10.74796,-12.86785 -1.63395,-5.99178 -0.82755,-10.67077 1.2914,-17.25854 7.97941,-15.58566 10.57393,-32.7428 39.018441,-50.77922 9.59256,-6.08256 27.16497,-26.42572 27.16497,-31.4456 0,-1.46551 2.09923,-4.57355 4.66277,-6.90893 4.08414,-3.72062 3.69035,-6.01709 -3.16469,-18.5489 -5.62756,-10.28789 -13.63814,-18.19532 -28.55069,-28.17027 -11.402131,-7.62684 -23.524851,-17.43424 -26.934021,-21.79583 -7.21454,-9.23018 -13.08841,-35.13552 -10.92342,-48.1749 5.49931,-33.12158 51.991741,-50.54423 78.823381,-29.54068 10.5163,8.23208 12.40229,24.08759 2.27832,19.1517 -8.3314,-4.06197 -18.47302,-3.80725 -21.42239,0.54019 -1.32685,1.95577 -2.11504,7.52387 -1.75401,12.37352 0.73685,9.89778 14.19811,21.89557 24.5621,21.88683 11.37471,-0.009 24.28179,-10.50255 32.28964,-26.24826 7.54525,-14.83601 7.65215,-15.92119 3.02113,-30.43343 -7.69184,-24.10386 -12.20689,-26.28353 -54.03038,-26.11747 z"
       style="display:inline;fill:#800000;stroke-width:3.05034"
       id="path1-3" />
    <path
       d="m 387.41275,104.31458 c -5.96146,0.0118 -12.56174,0.28629 -18.36384,0.82338 -34.90195,3.23074 -55.85044,22.79913 -54.36116,50.78463 1.07395,20.18025 7.45082,25.42335 30.92887,25.42335 20.9332,0 24.44462,-3.00122 19.33133,-16.50713 -3.07511,-8.12235 -6.13554,-8.89886 -21.42863,-5.43093 -6.08309,1.37945 -8.08957,0.70929 -8.08957,-2.69573 0,-15.4356 22.05867,-32.14317 45.91581,-34.77944 15.94824,-1.76233 33.34061,6.3508 47.37643,22.1016 8.00248,8.98032 9.45335,13.52161 11.06075,34.64973 1.66061,21.82763 1.15816,25.0977 -4.88746,31.95967 -7.35857,8.35224 -31.73244,23.71332 -56.5084,35.60846 -21.96089,10.54355 -24.24957,17.28317 -19.64344,57.81158 0.87401,7.69037 11.99443,17.37987 30.36086,26.45539 25.30964,12.50639 28.12896,16.62967 28.70051,41.94737 0.47662,21.11367 0.0607,22.53742 -8.60139,29.12293 -5.00941,3.80838 -15.68826,8.59182 -23.72568,10.62499 -13.11135,3.31669 -15.69471,3.12342 -25.1301,-1.85541 -5.78399,-3.05206 -10.98602,-7.75134 -11.5601,-10.44455 -0.87062,-4.08448 1.65003,-4.89515 15.17419,-4.89515 8.91757,0 16.21034,-0.5891 16.21034,-1.30842 0,-3.25523 -8.18518,-17.67348 -11.11689,-19.5807 -5.8282,-3.79153 -35.15971,-2.36422 -42.13944,2.05282 0,0 -6.59234,6.63305 -5.68016,20.45483 0.58742,8.90147 2.81694,18.09222 4.95609,20.42101 3.32646,3.62134 15.69564,9.48892 34.80512,16.51277 9.98972,3.67181 52.58961,-0.11001 63.64922,-5.65089 26.0854,-13.06856 32.22405,-23.20555 32.15853,-53.11378 -0.0469,-21.47709 -9.37166,-35.51454 -35.11721,-52.87132 -11.3319,-7.63961 -21.35439,-14.7861 -22.27131,-15.88111 -0.91688,-1.09507 -4.35338,-3.32634 -7.64016,-4.95724 -4.02127,-1.99529 -6.23158,-6.71771 -6.75378,-14.43737 -1.29289,-19.11312 3.48683,-24.80944 33.76897,-40.27239 24.13212,-12.32254 36.60967,-22.73099 43.67493,-36.42621 3.95491,-7.66575 7.19074,-15.31117 7.19074,-16.9865 0,-1.67537 1.7831,-5.62618 3.96365,-8.78088 3.15562,-4.5653 3.15562,-6.90565 0,-11.47095 -2.18055,-3.15466 -3.96365,-9.17577 -3.96365,-13.37715 0,-7.46912 -9.31095,-23.74428 -19.07542,-33.34698 -6.86586,-6.75212 -34.5798,-18.67202 -48.64353,-20.92293 -3.24296,-0.51903 -8.56356,-0.77325 -14.52502,-0.76135 z"
       style="display:none;fill:#800000;stroke-width:3.03777"
       id="path1-1" />
    <path
       d="m 337.2649,32.731808 c -43.24544,-1.74675 -75.26918,5.27359 -83.67339,18.34506 -6.27584,9.76112 -11.2075,9.84525 -21.10403,0.35503 -4.28736,-4.11133 -13.20365,-8.52705 -19.8182,-9.81325 -6.61454,-1.28621 -15.73798,-3.14475 -20.27386,-4.12722 -10.63345,-2.30325 -34.89876,3.47987 -34.89876,8.31547 0,2.04573 6.11213,5.93109 13.5825,8.63721 26.10057,9.45486 41.45754,16.97401 51.22769,25.08509 5.4148,4.4953 12.78258,10.0027 16.37265,12.23744 3.59007,2.23475 7.32625,4.06621 8.30178,4.06621 4.18076,0 15.97942,-9.14689 15.97942,-12.38722 0,-4.55207 17.55374,-19.14731 31.95878,-26.57178 6.15207,-3.17083 19.33606,-6.56654 29.2935,-7.54439 23.50238,-2.30802 28.23234,-4.08346 28.23234,-10.60652 0,-4.43465 -2.65954,-5.4854 -15.18042,-5.99113 z"
       style="display:inline;fill:#800000;stroke-width:3.01282"
       id="path1-36" />
    <path
       d="m 259.45351,158.31348 c -6.06627,0.1576 -12.85671,8.60721 -16.36017,25.59544 -3.99421,19.36745 -3.81661,19.13763 -35.86001,47.30776 -21.75116,19.12166 -24.52959,22.78334 -25.88538,34.08289 -2.24063,18.67399 3.89211,28.77751 27.47706,45.24969 13.57085,9.47807 23.45568,19.12038 28.13874,27.45378 3.97056,7.06556 10.86175,14.60679 15.31149,16.75853 4.44977,2.15171 6.29191,3.96488 4.09473,4.02737 -2.19716,0.0624 -3.99485,1.39462 -3.99485,2.95674 0,4.29884 8.28506,3.39691 12.75233,-1.38684 2.16962,-2.32329 3.12518,-6.12127 2.12225,-8.44305 -1.0145,-2.34957 0.59382,-5.47609 3.63282,-7.05066 3.00305,-1.55598 3.86344,-2.87049 1.91002,-2.91793 -7.8005,-0.18973 -0.11121,-14.44302 11.11071,-20.59728 15.5352,-8.5199 35.41108,-27.82345 35.90369,-34.8706 0.21828,-3.12426 0.97455,-10.15384 1.67908,-15.62131 0.70451,-5.46744 -0.48603,-13.77515 -2.64034,-18.46154 -3.71127,-8.07332 -5.99129,-11.22088 -13.96325,-19.27148 -16.12685,-16.28593 -33.33202,-40.77388 -33.33202,-47.43537 0,-18.31796 -5.63923,-27.54393 -12.0969,-27.37614 z m -4.63779,56.88249 c 0.1796,0.005 0.33093,0.0402 0.44943,0.10538 1.47327,0.80914 3.555,5.36259 4.62526,10.11834 1.07024,4.7558 4.49101,9.44222 7.60272,10.41236 9.26009,2.88712 26.42843,18.69769 26.42843,24.3362 0,8.01087 -12.02319,27.16928 -19.18775,30.57694 -5.91088,2.81139 -6.38488,2.13723 -6.47916,-9.13648 -0.0946,-11.31853 -0.43026,-11.78395 -4.79382,-6.65681 -2.58068,3.0323 -4.69395,8.38467 -4.69395,11.89904 0,3.51466 -1.4727,7.2024 -3.27703,8.19345 -1.80437,0.99105 -2.88296,3.8978 -2.3969,6.45711 1.10957,5.84254 -8.87168,8.01319 -11.27297,2.45193 -0.97468,-2.25731 -7.54062,-6.98377 -14.59367,-10.50669 -18.77997,-9.38037 -24.84598,-25.19536 -16.20414,-42.25965 4.30763,-8.50586 38.22128,-36.16926 43.79355,-35.99114 z"
       style="display:inline;fill:#800000;stroke-width:3.01282"
       id="path1-18" />
    <path
       d="m 245.70253,395.83112 c -2.00819,0.0994 -2.82256,0.4275 -1.95996,0.95969 4.64154,2.86383 3.7278,6.39071 -4.91866,18.97748 -8.87462,12.91935 -33.29895,35.50301 -38.39424,35.50301 -1.86461,0 -5.88626,1.15297 -8.93845,2.56287 -3.0522,1.40985 -11.58443,4.14791 -18.96308,6.08543 -18.31235,4.80853 -21.2897,14.01759 -5.76131,17.82362 3.51546,0.86166 13.97181,1.2206 23.23877,0.79881 12.62479,-0.57464 19.03482,-2.52335 25.56706,-7.7663 4.79486,-3.84851 12.6749,-8.74737 17.50868,-10.88941 4.83373,-2.14209 8.78863,-5.34388 8.78863,-7.11171 0,-5.85812 7.9287,-18.49984 11.61631,-18.52257 4.4833,-0.0284 13.95075,12.41809 13.95075,18.33952 0,2.53179 2.80627,4.36023 6.69137,4.36023 4.0032,0 7.36417,2.28184 8.36423,5.68047 0.9193,3.12427 3.55514,5.68048 5.86118,5.68048 2.30605,0 6.12852,1.71865 8.49532,3.82211 9.57441,8.50893 47.28901,8.95582 47.28901,0.56026 0,-2.0267 -6.83119,-6.32648 -15.18041,-9.55806 -8.34924,-3.23157 -21.8722,-11.09458 -30.04876,-17.46857 -14.29929,-11.14693 -27.18717,-31.67333 -23.35115,-37.1894 1.01473,-1.45915 0.31972,-2.65162 -1.54175,-2.65162 -1.86148,0 -3.38316,-1.23838 -3.38316,-2.75149 0,-1.51307 2.15722,-2.01418 4.79381,-1.11502 0.23331,0.0796 0.46201,0.14456 0.68663,0.19966 -0.0886,-0.1545 -0.17351,-0.31406 -0.25597,-0.48261 -0.38242,-0.78126 -0.74289,-1.57416 -1.22345,-2.31323 -0.41787,-0.79768 -0.88478,-1.59094 -1.44813,-2.3188 -0.88021,-0.2241 -1.56076,-0.5814 -1.91627,-1.00962 -0.58481,0.0199 -1.17068,0.0457 -1.754,0.0832 -0.0547,0.0143 -0.10191,0.0255 -0.14348,0.0332 -0.61957,0.24881 -1.48015,-0.042 -2.06609,0.25506 -0.44217,0.1065 -0.87404,0.14029 -1.31082,0.13859 0.0224,0.69571 -3.32434,0.45995 -11.17308,-0.30509 -3.90924,-0.38106 -7.11129,-0.51004 -9.11953,-0.41054 z"
       style="display:inline;fill:#800000;stroke-width:3.01282"
       id="path1-2" />
    <path
       d="m 383.33814,104.7304 c 34.26762,0.13606 36.21176,0.4836 51.58973,9.28015 15.55403,8.89725 21.54157,16.37071 31.79651,39.69651 6.19262,14.08582 6.26566,25.87179 0.27465,44.24562 -5.63222,17.27199 -21.91054,41.46271 -29.668,44.0921 -19.45147,6.59307 -39.16688,25.36192 -39.10585,37.2286 0.0617,11.94693 1.29891,13.14762 29.59312,28.70477 40.36384,22.19341 47.59395,32.03591 47.40763,64.54591 -0.0686,11.95891 -1.79174,24.69097 -3.83256,28.29536 -4.7229,8.34122 -20.46969,22.146 -34.86755,30.56422 -6.15239,3.59719 -14.06169,5.90774 -17.57734,5.13479 -3.51547,-0.77289 -15.46371,-1.42104 -26.55328,-1.44433 -12.21177,-0.0233 -19.40641,-1.15432 -18.24521,-2.86593 1.05451,-1.55436 -2.09788,-3.71412 -7.00348,-4.79931 -4.90564,-1.08512 -14.32024,-6.36411 -20.91678,-11.73095 -6.59656,-5.36689 -13.33226,-9.75779 -14.96819,-9.75779 -7.49594,0 -3.85139,-33.82726 4.15087,-38.53082 2.00148,-1.17646 10.7371,-2.16029 19.41248,-2.18359 11.84179,-0.0334 17.61709,1.53099 23.17016,6.28344 13.30298,11.3851 8.20985,20.87307 -9.54399,17.78129 -11.78453,-2.05224 -14.8865,6.02457 -5.72386,14.90963 7.27755,7.05708 26.12442,13.25159 37.23952,12.23706 12.05708,-1.10055 28.44854,-8.39952 38.95601,-17.34909 5.38304,-4.58494 9.24003,-9.29951 10.74796,-12.86785 1.63395,-5.99178 0.82755,-10.67077 -1.2914,-17.25854 -7.97941,-15.58566 -10.57393,-32.7428 -39.01844,-50.77922 -9.59256,-6.08256 -27.16497,-26.42572 -27.16497,-31.4456 0,-1.46551 -2.09923,-4.57355 -4.66277,-6.90893 -4.08414,-3.72062 -3.69035,-6.01709 3.16469,-18.5489 5.62756,-10.28789 13.63814,-18.19532 28.55069,-28.17027 11.40213,-7.62684 23.52485,-17.43424 26.93402,-21.79583 7.21454,-9.23018 13.08841,-35.13552 10.92342,-48.1749 -5.49931,-33.12158 -51.99174,-50.54423 -78.82338,-29.54068 -10.5163,8.23208 -12.40229,24.08759 -2.27832,19.1517 8.3314,-4.06197 18.47302,-3.80725 21.42239,0.54019 1.32685,1.95577 2.11504,7.52387 1.75401,12.37352 -0.73685,9.89778 -14.19811,21.89557 -24.5621,21.88683 -11.37471,-0.009 -24.28179,-10.50255 -32.28964,-26.24826 -7.54525,-14.83601 -7.65215,-15.92119 -3.02113,-30.43343 7.69184,-24.10386 12.20689,-26.28353 54.03038,-26.11747 z"
       style="display:inline;fill:#800000;stroke-width:3.05034"
       id="path1-3-2" />
  </g>
</svg>
