<?xml version="1.0" encoding="UTF-8"?>
<!-- Created with Inkscape (http://www.inkscape.org/) -->
<svg width="523.8" height="523.8" version="1.1" viewBox="0 0 523.8 523.8" xmlns="http://www.w3.org/2000/svg">
 <defs>
  <clipPath id="clipPath53">
   <rect x=".49903" y=".49903" width="511" height="511" fill-opacity=".021807" stroke="#000" stroke-width=".99805"/>
  </clipPath>
 </defs>
 <g transform="translate(11.5 11.8)" display="none">
  <rect x=".63946" width="500" height="500" display="inline" fill="#f5f5f5" style="paint-order:fill markers stroke"/>
  <path d="m2.7211 252.38v-248.3h493.88v496.6h-493.88zm177.68 229.93c11.174-0.80574 18.161-2.8056 23.684-6.779 7.8699-5.6614 13.433-9.199 20.014-12.727 8.1486-4.368 10.304-6.281 10.845-9.625 1.0528-6.5103 8.9975-18.485 12.264-18.485 3.2242 0 9.2575 6.186 12.717 13.039 1.0909 2.1611 1.9835 4.5703 1.9835 5.3539 0 3.4664 3.5808 6.0943 8.3115 6.0997 3.3234 4e-3 6.5444 2.2966 8.0694 5.7442 1.6697 3.7747 4.5072 6.1834 7.9286 6.7305 1.4669 0.23457 4.7586 1.8002 7.3149 3.4792 8.0718 5.3016 16.738 7.3793 30.961 7.4224 5.051 0.0153 10.925-0.35851 13.053-0.83069 4.5546-1.0105 8.2925-3.317 8.5795-5.2942 0.30034-2.0689-3.8899-5.418-10.709-8.5594-21.713-10.002-34.468-17.69-43.778-26.384-6.4706-6.0428-14.444-16.491-17.86-23.403-2.4972-5.0526-3.0221-8.1477-2.2541-13.289 0.21099-1.4125-0.0958-1.7332-2.0507-2.143-4.3944-0.92122-4.0199-4.5264 0.38444-3.7002 1.24 0.23262 2.2545 0.24013 2.2545 0.0167 0-0.22344-0.68687-1.5997-1.5264-3.0584-2.0549-3.5705-3.6561-4.2075-8.3804-3.3342-2.648 0.48951-6.0095 0.48321-11.016-0.0206-8.8854-0.89425-14.247-0.92649-14.765-0.0888-0.21631 0.34999 0.40033 1.43 1.3703 2.3999 1.4506 1.4506 1.6824 2.1526 1.3065 3.9555-1.5567 7.4653-13.915 23.516-29.235 37.97-11.418 10.773-17.586 15.107-22.538 15.838-1.5456 0.22831-5.5811 1.4852-8.9677 2.7932s-10.387 3.6088-15.557 5.113c-10.906 3.1732-17.105 5.9997-19.562 8.9195-1.8597 2.2102-2.2252 5.0449-0.87071 6.7536 4.5616 5.7543 16.412 7.6533 38.029 6.0945zm-69.331-47.577c23.553-0.82524 26.349-1.2635 26.349-4.1305 0-1.4554 3.5525-3.5708 7.3876-4.3991 5.7609-1.2442 14.079-5.9554 25.542-14.466 4.0142-2.9805 8.7319-6.0941 10.484-6.9193 5.0755-2.3905 5.1749-2.4627 6.2466-4.5401 1.3998-2.7135 1.2814-16.709-0.19259-22.76-1.6158-6.634-3.6547-11.644-5.5824-13.716-2.87-3.0858-6.0313-3.5904-22.456-3.5843-17.179 6e-3 -19.24 0.48277-26.24 6.0664-5.1067 4.0734-7.5557 7.7393-7.9564 11.91-0.27778 2.8909-0.0924 3.5667 1.3834 5.0425 2.6847 2.6847 6.4468 3.3456 15.93 2.7986 7.216-0.4162 8.6083-0.32598 10.105 0.65481 4.243 2.7801 3.4029 7.628-2.3012 13.28-7.0693 7.0043-19.338 11.905-34.985 13.976-10.165 1.345-30.281-5.6706-43.968-15.334-6.3273-4.4671-13.166-11.428-15.049-15.318-1.6532-3.415-1.9573-9.6824-0.70776-14.584 0.87326-3.4258 9.4329-22.299 12.495-27.551 6.1551-10.556 16.111-20.839 27.452-28.355 8.7001-5.7655 15.449-11.694 22.345-19.628 6.6202-7.6171 10.324-13.053 11.281-16.553 0.39952-1.4618 2.0427-4.0463 3.6971-5.815 4.0919-4.3746 4.6524-6.0913 3.2986-10.103-2.4286-7.1971-8.5855-17.115-14.668-23.628-5.5721-5.9665-12.21-11.265-24.358-19.443-9.4471-6.3599-20.459-14.925-24.905-19.371-10.193-10.193-17.397-42.965-12.701-57.783 5.3482-16.88 21.809-30.508 41.83-34.634 6.5526-1.3502 17.75-1.3733 24.008-0.0496 14.639 3.0962 27.551 14.51 27.551 24.354 0 5.0808-1.6644 5.4955-9.8639 2.4576-4.9831-1.8462-13.865-2.1664-16.946-0.6108-3.7253 1.8814-4.7324 4.1067-5.0399 11.136-0.16932 3.8714 0.039 7.3418 0.52999 8.8295 2.2216 6.7315 11.495 15.372 19.562 18.228 10.969 3.8827 25.126-2.699 35.544-16.524 5.0307-6.6763 11.918-20.104 12.8-24.953 0.82819-4.5566 0.15516-8.4784-3.1531-18.373-6.1416-18.369-10.283-22.819-23.989-25.774-5.0356-1.0857-9.2837-1.2265-36.315-1.2037-35.321 0.02978-36.289 0.14687-47.959 5.7981-18.933 9.1686-27.499 17.4-36.629 35.201-9.5958 18.709-11.788 28.892-9.2967 43.179 2.8982 16.619 12.959 37.28 25.604 52.579 4.6227 5.5928 8.1768 8.28 13.859 10.478 15.124 5.8506 31.16 18.992 36.708 30.082 2.0743 4.1463 2.408 5.478 2.408 9.6093 0 3.5004-0.3907 5.603-1.4464 7.7838-2.4189 4.9967-4.9895 6.6941-36.309 23.974-22.628 12.484-34.705 22.271-39.978 32.397-4.5206 8.6807-5.5589 14.65-5.546 31.887 0.01205 16.181 1.1751 26.028 3.6465 30.872 5.7398 11.251 31.294 31.526 46.596 36.969 4.7045 1.6736 6.1645 1.8999 10.248 1.589 2.619-0.19944 13.262-0.66045 23.651-1.0245zm311.87-1.0386c10.059-3.1777 26.717-14.609 38.661-26.532 7.8796-7.8652 9.3151-10.406 10.965-19.407 1.6691-9.105 1.6802-34.838 0.0183-42.177-3.8486-16.994-14.802-27.915-44.349-44.216-31.319-17.28-33.89-18.977-36.309-23.974-1.0557-2.1809-1.4464-4.2834-1.4464-7.7838 0-7.107 3.0718-12.884 11.184-21.033 8.3176-8.355 17.496-14.437 28.149-18.651 4.4815-1.7731 6.4836-3.0506 9.6185-6.1371 10.427-10.266 21.513-28.887 26.538-44.575 5.4404-16.984 5.3294-29.177-0.39172-43.023-6.2078-15.024-12.492-25.448-19.581-32.478-5.8154-5.7677-10.993-9.239-21.844-14.647-12.658-6.3079-13.024-6.3556-48.98-6.3831-27.053-0.02069-31.277 0.11988-36.33 1.2092-13.891 2.9945-18.579 8.3697-24.906 28.56-2.1525 6.8686-2.4785 8.7386-2.264 12.987 0.22442 4.4442 0.68317 5.8444 4.3918 13.405 7.2186 14.715 15.92 24.36 26.403 29.265 9.0731 4.2458 16.937 3.2872 25.982-3.1674 4.7447-3.3858 9.8373-9.6104 11.172-13.656 0.48805-1.4788 0.69986-4.9455 0.53394-8.739-0.30797-7.0415-1.2101-9.1076-4.819-11.037-3.2969-1.7626-11.906-1.5379-17.17 0.44822-8.0814 3.0486-9.864 2.5995-9.864-2.4853 0-9.0163 10.01-18.739 24.15-23.456 4.1722-1.3917 6.0677-1.5882 15.306-1.5866 12.359 2e-3 17.465 1.1418 27.551 6.1496 14.525 7.212 24.478 19.34 27.33 33.304 2.2436 10.986-1.3854 31.525-7.956 45.03-3.129 6.431-3.8066 7.3087-9.333 12.089-5.8306 5.0432-13.007 10.327-28.748 21.168-8.7832 6.0486-19.478 16.225-23.42 22.286-4.965 7.6323-8.5524 15.448-8.5524 18.632 0 2.5802 0.40173 3.3927 3.1076 6.2855 1.7092 1.8272 3.7066 4.8988 4.4388 6.8257 1.7424 4.5856 4.5671 8.7088 11.185 16.326 6.8658 7.9027 13.382 13.626 22.192 19.491 11.344 7.5517 21.481 17.908 27.199 27.787 3.4106 5.8918 11.962 24.639 12.878 28.231 1.2754 5.0034 0.94756 11.165-0.78434 14.743-1.9505 4.0292-9.8981 11.974-16.109 16.103-14.226 9.4571-32.201 15.489-42.977 14.422-14.221-1.4083-29.301-7.6738-35.813-14.88-4.7503-5.2564-5.2411-9.8421-1.328-12.406 1.4969-0.9808 2.8892-1.071 10.105-0.65481 9.4836 0.54699 13.246-0.11393 15.93-2.7986 1.4816-1.4816 1.6617-2.1462 1.3789-5.0893-0.412-4.2878-3.0007-7.9833-8.6279-12.317-6.5249-5.025-9.3582-5.6295-26.244-5.5992-16.551 0.0297-18.997 0.49949-22.092 4.2426-4.4492 5.3794-7.895 22.696-6.332 31.821 0.41963 2.4497 1.1161 4.8795 1.5476 5.3996 0.43158 0.52002 2.6758 1.8393 4.9872 2.9317 2.3114 1.0924 7.9691 4.7721 12.573 8.177 9.8528 7.2874 16.371 11.008 22.922 13.086 6.5504 2.0772 8.5034 3.1607 8.5034 4.7176 0 0.72552 0.61694 1.6493 1.371 2.0529 1.9557 1.0467 13.506 1.9718 26.18 2.0968 5.9864 0.0591 13.027 0.32733 15.646 0.59614 8.5821 0.88082 11.055 0.7341 16.473-0.97728zm-171.17-91.611c5.7057-1.9104 8.9513-6.1089 8.7943-11.376-0.0517-1.7355-0.0933-3.7309-0.0923-4.4342 2e-3 -1.5419 2.4384-4.2708 5.005-5.606 2.4329-1.2657 2.3725-2.4914-0.17007-3.4512-1.5913-0.60064-2.0408-1.1856-2.0408-2.6554 0-5.3246 7.9326-14.625 17.007-19.94 13.819-8.0937 30.713-23.562 35.516-32.52 1.4022-2.6147 1.9622-5.1989 2.843-13.12 1.3429-12.076 1.3576-16.002 0.0824-22.021-1.9742-9.3184-6.8574-17.139-17.681-28.319-14.723-15.207-31.545-37.906-34.614-46.707-0.50111-1.437-1.1249-5.5208-1.3861-9.0752-1.1759-15.998-5.9791-25.159-13.196-25.168-2.9801-3e-3 -5.5051 1.3793-8.4292 4.6159-4.51 4.992-7.3556 12.419-11.383 29.711-3.1217 13.402-5.9717 16.882-35.146 42.915-24.726 22.064-27.825 25.744-29.891 35.489-1.1382 5.3716-1.2744 15.527-0.26672 19.9 2.4911 10.811 10.057 19.453 29.198 33.353 16.508 11.988 25.237 20.529 31.228 30.558 3.4898 5.8415 10.039 13.548 13.392 15.758 1.4624 0.96386 4.0364 2.6418 5.72 3.7287 2.8704 1.853 2.9552 1.9913 1.3606 2.2183-3.8082 0.54207-5.3015 3.9484-2.5697 5.8618 1.7965 1.2583 3.5857 1.3341 6.7199 0.28477zm3.2709-258.62c5.3396-3.1502 10.613-8.4786 11.173-11.29 0.90226-4.5284 14.738-16.519 28.862-25.012 10.965-6.5937 20.971-9.4306 42.733-12.115 21.772-2.6861 25.73-4.49 25.318-11.538-0.29937-5.1221-1.9812-5.7535-17.361-6.5176-24.267-1.2057-50.073 1.053-66.536 5.8239-12.31 3.5674-19.52 7.9709-24.518 14.976-3.2489 4.5529-6.5442 7.1074-9.1686 7.1074-2.5052 0-7.1994-2.5949-11.043-6.1046-8.2619-7.5434-15.375-10.582-33.418-14.274-15.726-3.2181-22.083-3.487-32.456-1.3731-8.4349 1.7189-13.753 3.6815-16.411 6.0567-1.8198 1.626-1.9622 2.014-1.2365 3.3698 1.6904 3.1585 5.0733 4.8222 28.582 14.057 21.147 8.3069 33.12 14.806 44.817 24.326 12.127 9.8701 22.13 15.854 25.242 15.101 0.95803-0.23188 3.3977-1.3985 5.4215-2.5924z" display="none" fill="#9e9e9e" style="paint-order:fill markers stroke"/>
 </g>
 <g transform="translate(11.5 11.8)">
  <rect x="-5.526" y="-5.8261" width="511.85" height="511.85" rx="77.013" fill="#fff" stroke="#cf0f47" stroke-linejoin="round" stroke-miterlimit="3.8" stroke-width="11.948" style="paint-order:fill markers stroke"/>
 </g>
 <g transform="translate(11.5 11.8)">
  <path d="m237.56 385.39c-2.2985 0.11379-3.2306 0.48932-2.2433 1.0984 5.3126 3.2779 4.2668 7.3147-5.6298 21.721-10.158 14.787-38.113 40.636-43.945 40.636-2.1342 0-6.7373 1.3197-10.231 2.9334-3.4935 1.6137-13.259 4.7476-21.705 6.9652-20.96 5.5037-24.368 16.044-6.5943 20.401 4.0237 0.98625 15.992 1.3971 26.599 0.91431 14.45-0.65772 21.787-2.8882 29.263-8.8891 5.4881-4.4049 14.507-10.012 20.04-12.464 5.5326-2.4518 10.059-6.1165 10.059-8.1399 0-6.7051 9.075-21.174 13.296-21.201 5.1315-0.0326 15.968 14.213 15.968 20.991 0 2.8978 3.212 4.9906 7.6588 4.9906 4.582 0 8.4289 2.6117 9.5735 6.5018 1.0522 3.576 4.0691 6.5017 6.7086 6.5017 2.6394 0 7.0146 1.9671 9.7236 4.3747 10.959 9.7391 54.126 10.251 54.126 0.64126 0-2.3197-7.8188-7.2412-17.375-10.94-9.5564-3.6988-25.034-12.699-34.393-19.994-16.367-12.759-31.118-36.253-26.727-42.566 1.1614-1.6701 0.36594-3.035-1.7646-3.035-2.1306 0-3.8723-1.4174-3.8723-3.1493 0-1.7318 2.4691-2.3054 5.4869-1.2762 0.26703 0.0911 0.52879 0.16546 0.78589 0.22853-0.10143-0.17685-0.1986-0.35947-0.29298-0.55239-0.43771-0.89421-0.85029-1.8018-1.4003-2.6477-0.47828-0.913-1.0127-1.8209-1.6575-2.654-1.0075-0.25651-1.7864-0.66546-2.1933-1.1556-0.66937 0.0228-1.3399 0.0523-2.0076 0.0952-0.0626 0.0163-0.11664 0.0292-0.16422 0.0379-0.70914 0.28478-1.6941-0.048-2.3648 0.29194-0.50609 0.1219-1.0004 0.16057-1.5003 0.15862 0.0258 0.7963-3.805 0.52645-12.788-0.3492-4.4744-0.43616-8.1394-0.58378-10.438-0.46989z" fill="#cf0f47"/>
  <path transform="matrix(1.0079 0 0 1.0079 -7.381 -34.033)" d="m256.51 143.94c-6.8886 0.17896-14.6 9.774-18.578 29.065-4.5357 21.993-4.334 21.732-40.721 53.721-24.7 21.714-27.855 25.872-29.394 38.703-2.5444 21.205 4.4197 32.679 31.202 51.384 15.411 10.763 26.635 21.712 31.953 31.175 4.5088 8.0234 12.334 16.587 17.387 19.03 5.053 2.4434 7.1448 4.5024 4.6498 4.5733-2.495 0.0709-4.5364 1.5837-4.5364 3.3576 0 4.8816 9.4082 3.8574 14.481-1.5748 2.4637-2.6382 3.5488-6.9511 2.4099-9.5876-1.152-2.6681 0.67432-6.2184 4.1253-8.0064 3.4101-1.7669 4.3872-3.2596 2.1689-3.3135-8.8579-0.21544-0.12629-16.401 12.617-23.389 17.641-9.6749 40.211-31.595 40.771-39.598 0.24787-3.5478 1.1066-11.53 1.9067-17.739 0.80001-6.2086-0.55192-15.643-2.9983-20.964-4.2144-9.1677-6.8035-12.742-15.856-21.884-18.313-18.494-37.851-46.301-37.851-53.866 0-20.801-6.4037-31.278-13.737-31.087zm-5.2665 64.593c0.20395 6e-3 0.37579 0.0456 0.51036 0.11967 1.673 0.91883 4.0369 6.0895 5.2523 11.49 1.2153 5.4005 5.0998 10.722 8.6333 11.824 10.515 3.2785 30.011 21.232 30.011 27.635 0 9.0968-16.26 27.609-21.789 34.722-10.08 12.968-14.29 13.23-24.574 12.214-6.7204-0.66379-10.074 9.0995-12.801 2.7843-1.1068-2.5633-8.5628-7.9305-16.572-11.931-21.326-10.652-28.214-28.611-18.401-47.988 4.8916-9.6589 43.403-41.072 49.73-40.87z" clip-path="url(#clipPath53)" fill="#cf0f47"/>
  <rect x=".49902" y=".49902" width="509" height="509" display="none" fill="#800000" fill-opacity=".021807" stroke="#800000" stroke-linejoin="round" stroke-width="6.998" style="paint-order:fill markers stroke"/>
 </g>
 <g transform="translate(11.5 11.8)" display="none">
  <path d="m383.08 79.305c-6.4914 0.01262-13.678 0.30664-19.996 0.8819-38.004 3.4604-60.815 24.42-59.193 54.394 1.1694 21.615 8.1131 27.23 33.678 27.23 22.794 0 26.617-3.2145 21.05-17.68-3.3484-8.6996-6.6809-9.5314-23.333-5.8169-6.6238 1.4775-8.8086 0.7597-8.8086-2.8873 0-16.533 24.019-34.428 49.997-37.251 17.366-1.8876 36.304 6.8022 51.588 23.672 8.7138 9.6186 10.294 14.483 12.044 37.112 1.8082 23.379 1.2611 26.882-5.3219 34.231-8.0127 8.9459-34.553 25.399-61.531 38.139-23.913 11.293-26.405 18.512-21.39 61.921 0.95169 8.237 13.061 18.615 33.06 28.336 27.559 13.395 30.629 17.812 31.252 44.929 0.51899 22.614 0.0661 24.139-9.366 31.193-5.4547 4.0791-17.083 9.2025-25.835 11.38-14.277 3.5524-17.09 3.3454-27.364-1.9873-6.2981-3.269-11.963-8.3023-12.588-11.187-0.94801-4.3748 1.7967-5.2431 16.523-5.2431 9.7102 0 17.651-0.63096 17.651-1.4014 0-3.4866-8.9128-18.93-12.105-20.972-6.3463-4.061-38.285-2.5322-45.885 2.1987-6.2715 3.9038-7.1783 7.1045-6.1851 21.909 0.63963 9.5342 3.0673 19.378 5.3966 21.872 3.6222 3.8787 17.091 10.163 37.899 17.686 10.878 3.9328 57.264-0.11783 69.307-6.0525 28.404-13.997 35.088-24.855 35.017-56.889-0.051-23.004-10.205-38.039-38.239-56.629-12.339-8.1826-23.253-15.837-24.251-17.01-0.99838-1.1729-4.7404-3.5628-8.3193-5.3096-4.3787-2.1371-6.7855-7.1952-7.3541-15.464-1.4078-20.472 3.7968-26.573 36.771-43.135 26.277-13.198 39.864-24.347 47.557-39.015 4.3065-8.2106 7.8299-16.399 7.8299-18.194s1.9416-6.026 4.316-9.405c3.4361-4.8898 3.4361-7.3965 0-12.286-2.3744-3.3789-4.316-9.8279-4.316-14.328 0-8-10.139-25.432-20.771-35.717-7.4762-7.232-37.654-19.999-52.967-22.41-3.5312-0.55591-9.3248-0.82821-15.816-0.81546z" display="inline" fill="#800000" stroke-width="3.2806"/>
 </g>
 <g transform="translate(11.5 11.8)" fill="#cf0f47">
  <path d="m126.03 74.591c-39.222 0.15192-41.447 0.53998-59.048 10.362-17.803 9.9346-24.656 18.279-36.394 44.325-7.0879 15.728-7.1715 28.888-0.31436 49.404 6.4465 19.286 25.078 46.297 33.957 49.233 22.264 7.3618 44.83 28.319 44.76 41.569-0.0706 13.34-1.4867 14.681-33.872 32.052-46.2 24.781-54.475 35.771-54.262 72.072 0.07852 13.353 2.0508 27.57 4.3867 31.594 5.4057 9.3138 23.429 24.728 39.909 34.128 7.0419 4.0166 16.095 6.5966 20.119 5.7335 4.0237-0.86301 17.699-1.5867 30.392-1.6127 13.977-0.026 22.212-1.2889 20.883-3.2001-1.207-1.7356 2.4012-4.1472 8.016-5.3589 5.6149-1.2116 16.391-7.1061 23.941-13.099 7.5503-5.9926 15.26-10.895 17.132-10.895 8.5797 0 4.4082-37.771-4.751-43.023-2.2908-1.3136-12.289-2.4122-22.219-2.4382-13.554-0.0373-20.164 1.7095-26.52 7.016-15.226 12.713-9.3968 23.307 10.924 19.854 13.488-2.2915 17.039 6.727 6.5514 16.648-8.3297 7.8799-29.901 14.797-42.624 13.664-13.8-1.2289-32.562-9.3788-44.588-19.372-6.1613-5.1195-10.576-10.384-12.302-14.368-1.8702-6.6904-0.94718-11.915 1.4781-19.271 9.1331-17.403 12.103-36.56 44.66-56.7 10.979-6.7918 31.092-29.507 31.092-35.112 0-1.6364 2.4027-5.1068 5.3369-7.7145 4.6746-4.1544 4.2239-6.7186-3.6222-20.712-6.4412-11.487-15.61-20.317-32.678-31.455-13.051-8.5161-26.926-19.467-30.828-24.337-8.2576-10.306-14.981-39.232-12.503-53.792 6.2944-36.983 59.509-56.437 90.219-32.985 12.037 9.1919 14.195 26.896 2.6077 21.385-9.5359-4.5356-21.144-4.2512-24.52 0.60318-1.5187 2.1838-2.4208 8.4011-2.0076 13.816 0.84337 11.052 16.251 24.448 28.113 24.439 13.019-0.0106 27.792-11.727 36.958-29.309 8.6361-16.566 8.7585-17.778 3.4579-33.982-8.8039-26.914-13.972-29.348-61.842-29.163z"/>
  <path d="m373.54 73.906c39.222 0.15192 41.447 0.53998 59.048 10.362 17.803 9.9346 24.656 18.279 36.394 44.325 7.0879 15.728 7.1715 28.888 0.31436 49.404-6.4465 19.286-25.078 46.297-33.957 49.233-22.264 7.3618-44.83 28.319-44.76 41.569 0.0706 13.34 1.4867 14.681 33.872 32.052 46.2 24.781 54.475 35.771 54.262 72.072-0.0785 13.353-2.0508 27.57-4.3867 31.594-5.4057 9.3138-23.429 24.728-39.909 34.128-7.0419 4.0166-16.095 6.5966-20.119 5.7335-4.0237-0.86301-17.699-1.5867-30.392-1.6127-13.977-0.026-22.212-1.2889-20.883-3.2001 1.207-1.7356-2.4012-4.1472-8.016-5.3589-5.6149-1.2116-16.391-7.1061-23.941-13.099-7.5503-5.9926-15.26-10.895-17.132-10.895-8.5797 0-4.4082-37.771 4.751-43.023 2.2908-1.3136 12.289-2.4122 22.219-2.4382 13.554-0.0373 20.164 1.7095 26.52 7.016 15.226 12.713 9.3968 23.307-10.924 19.854-13.488-2.2915-17.039 6.727-6.5514 16.648 8.3297 7.8799 29.901 14.797 42.624 13.664 13.8-1.2289 32.562-9.3788 44.588-19.372 6.1613-5.1195 10.576-10.384 12.302-14.368 1.8702-6.6904 0.94719-11.915-1.4781-19.271-9.133-17.403-12.103-36.56-44.66-56.7-10.979-6.7918-31.092-29.507-31.092-35.112 0-1.6364-2.4027-5.1068-5.3369-7.7145-4.6746-4.1544-4.2239-6.7186 3.6222-20.712 6.4412-11.487 15.61-20.317 32.678-31.455 13.051-8.5161 26.926-19.467 30.828-24.337 8.2576-10.306 14.981-39.232 12.503-53.792-6.2944-36.983-59.509-56.437-90.219-32.985-12.037 9.1919-14.195 26.896-2.6077 21.385 9.5359-4.5356 21.144-4.2512 24.52 0.60318 1.5187 2.1838 2.4208 8.4011 2.0076 13.816-0.84337 11.052-16.251 24.448-28.113 24.439-13.019-0.0106-27.792-11.727-36.958-29.309-8.6361-16.566-8.7585-17.778-3.4579-33.982 8.8039-26.914 13.972-29.348 61.842-29.163z"/>
 </g>
 <g transform="translate(9.5 11.8)">
  <path d="m353.03 19.247c-49.498-1.9993-86.151 6.036-95.771 20.997-7.1832 11.172-12.828 11.269-24.155 0.40636-4.9072-4.7057-15.113-9.7599-22.683-11.232-7.5708-1.4722-18.013-3.5994-23.205-4.7239-12.171-2.6362-39.944 3.983-39.944 9.5177 0 2.3415 6.9958 6.7886 15.546 9.886 29.874 10.822 47.451 19.428 58.634 28.712 6.1976 5.1452 14.631 11.449 18.74 14.007 4.1091 2.5578 8.3855 4.6541 9.502 4.6541 4.7852 0 18.29-10.469 18.29-14.178 0-5.2102 20.092-21.916 36.579-30.413 7.0415-3.6293 22.132-7.5159 33.529-8.6351 26.9-2.6417 32.314-4.6738 32.314-12.14 0-5.0758-3.044-6.2785-17.375-6.8573z" fill="#cf0f47"/>
 </g>
</svg>
