<svg
  width="523.8"
  height="523.8"
  viewBox="0 0 523.8 523.8"
  xmlns="http://www.w3.org/2000/svg"
>
  <!-- Background: white rounded rect with pink border -->
  <g transform="translate(11.5,11.8)">
    <rect
      fill="#fff"
      stroke="#cf0f47"
      stroke-width="11.948"
      stroke-linejoin="round"
      width="511.852"
      height="511.852"
      x="-5.526"
      y="-5.826"
      rx="77.013"
    />
  </g>

  <!-- Tail feathers -->
  <g transform="translate(11.5,11.8)">
    <path
      fill="#cf0f47"
      d="m 237.557,385.386 c -2.299,0.114 -3.231,0.489 -2.243,1.098 5.313,3.278 4.267,7.315 -5.63,21.721 -10.158,14.787 -38.113,40.636 -43.945,40.636 -2.134,0 -6.737,1.32 -10.231,2.933 -3.493,1.614 -13.259,4.748 -21.705,6.965 -20.96,5.504 -24.368,16.044 -6.594,20.401 4.024,0.986 15.992,1.397 26.599,0.914 14.45,-0.658 21.787,-2.888 29.263,-8.889 5.488,-4.405 14.507,-10.012 20.04,-12.464 5.533,-2.452 10.059,-6.116 10.059,-8.14 0,-6.705 9.075,-21.174 13.296,-21.201 5.131,-0.033 15.968,14.214 15.968,20.991 0,2.898 3.212,4.991 7.659,4.991 4.582,0 8.429,2.612 9.573,6.502 1.052,3.576 4.069,6.502 6.709,6.502 2.639,0 7.015,1.967 9.724,4.375 10.959,9.739 54.126,10.251 54.126,0.641 0,-2.32 -7.819,-7.241 -17.375,-10.94 -9.556,-3.699 -25.034,-12.699 -34.393,-19.994 -16.367,-12.759 -31.118,-36.253 -26.727,-42.566 1.161,-1.67 0.366,-3.035 -1.765,-3.035 -2.131,0 -3.872,-1.417 -3.872,-3.149 0,-1.732 2.469,-2.305 5.487,-1.276 0.267,0.091 0.529,0.165 0.786,0.229 -0.101,-0.177 -0.199,-0.36 -0.293,-0.553 -0.438,-0.894 -0.85,-1.802 -1.4,-2.648 -0.478,-0.913 -1.013,-1.821 -1.657,-2.654 -1.007,-0.257 -1.786,-0.665 -2.193,-1.156 -0.669,0.023 -1.34,0.052 -2.008,0.095 -0.063,0.016 -0.117,0.029 -0.164,0.038 -0.709,0.285 -1.694,-0.048 -2.365,0.292 -0.506,0.122 -1,0.161 -1.5,0.159 0.026,0.796 -3.805,0.526 -12.788,-0.349 -4.475,-0.436 -8.14,-0.584 -10.438,-0.47 z"
    />
  </g>

  <!-- Owl body -->
  <g transform="translate(11.5,11.8)">
    <path
      fill="#cf0f47"
      d="m 256.515,143.936 c -6.889,0.179 -14.6,9.774 -18.578,29.065 -4.536,21.993 -4.334,21.732 -40.721,53.721 -24.7,21.714 -27.855,25.872 -29.394,38.703 -2.545,21.205 4.42,32.679 31.202,51.384 15.41,10.763 26.635,21.712 31.953,31.175 4.509,8.023 12.334,16.587 17.387,19.03 5.053,2.444 7.145,4.503 4.65,4.574 -2.495,0.071 -4.536,1.584 -4.536,3.358 0,4.881 9.408,3.857 14.481,-1.575 2.464,-2.638 3.549,-6.951 2.41,-9.588 -1.152,-2.668 0.674,-6.218 4.125,-8.006 3.41,-1.767 4.387,-3.26 2.169,-3.313 -8.858,-0.216 -0.126,-16.401 12.617,-23.39 17.641,-9.674 40.211,-31.595 40.771,-39.597 0.248,-3.548 1.107,-11.53 1.907,-17.739 0.8,-6.209 -0.552,-15.643 -2.998,-20.964 -4.214,-9.168 -6.803,-12.742 -15.856,-21.884 -18.313,-18.494 -37.851,-46.301 -37.851,-53.866 0,-20.801 -6.404,-31.278 -13.737,-31.087 z m -5.266,64.593 c 0.204,0.006 0.376,0.046 0.51,0.12 1.673,0.919 4.037,6.09 5.252,11.49 1.216,5.4 5.1,10.722 8.633,11.824 10.516,3.279 30.011,21.232 30.011,27.635 0,9.097 -16.26,27.609 -21.789,34.722 -10.08,12.968 -14.29,13.23 -24.574,12.214 -6.72,-0.664 -10.074,9.1 -12.801,2.784 -1.107,-2.563 -8.563,-7.93 -16.572,-11.931 -21.326,-10.652 -28.214,-28.611 -18.401,-47.988 4.892,-9.659 43.403,-41.072 49.73,-40.87 z"
      transform="matrix(1.008,0,0,1.008,-7.381,-34.033)"
    />
  </g>

  <!-- Left horn/S-shape -->
  <g transform="translate(11.5,11.8)">
    <path
      fill="#cf0f47"
      d="m 126.031,74.591 c -39.222,0.152 -41.447,0.54 -59.048,10.362 -17.803,9.935 -24.656,18.28 -36.394,44.325 -7.088,15.728 -7.172,28.888 -0.314,49.404 6.447,19.286 25.078,46.297 33.957,49.233 22.264,7.362 44.83,28.319 44.76,41.569 -0.071,13.34 -1.487,14.681 -33.872,32.052 -46.2,24.781 -54.475,35.771 -54.262,72.072 0.079,13.353 2.051,27.57 4.387,31.594 5.406,9.314 23.429,24.728 39.909,34.128 7.042,4.017 16.095,6.597 20.119,5.733 4.024,-0.863 17.699,-1.587 30.392,-1.613 13.977,-0.026 22.212,-1.289 20.883,-3.2 -1.207,-1.736 2.401,-4.147 8.016,-5.359 5.615,-1.212 16.391,-7.106 23.941,-13.099 7.55,-5.993 15.26,-10.896 17.132,-10.896 8.58,0 4.408,-37.771 -4.751,-43.023 -2.291,-1.314 -12.289,-2.412 -22.219,-2.438 -13.554,-0.037 -20.164,1.71 -26.52,7.016 -15.226,12.713 -9.397,23.307 10.924,19.855 13.488,-2.292 17.039,6.727 6.551,16.648 -8.33,7.88 -29.901,14.797 -42.624,13.664 -13.8,-1.229 -32.562,-9.379 -44.588,-19.372 -6.161,-5.12 -10.576,-10.384 -12.302,-14.368 -1.87,-6.69 -0.947,-11.915 1.478,-19.271 9.133,-17.403 12.103,-36.56 44.66,-56.7 10.979,-6.792 31.092,-29.507 31.092,-35.112 0,-1.636 2.403,-5.107 5.337,-7.714 4.675,-4.155 4.224,-6.719 -3.622,-20.712 C 122.612,237.883 113.444,229.053 96.375,217.915 83.324,209.399 69.449,198.448 65.547,193.578 57.289,183.272 50.566,154.346 53.044,139.786 c 6.295,-36.983 59.509,-56.437 90.22,-32.985 12.037,9.192 14.195,26.896 2.608,21.385 -9.536,-4.536 -21.144,-4.251 -24.52,0.603 -1.519,2.184 -2.421,8.401 -2.008,13.816 0.843,11.052 16.251,24.449 28.113,24.439 13.019,-0.011 27.792,-11.727 36.958,-29.309 8.636,-16.566 8.758,-17.778 3.458,-33.982 -8.804,-26.914 -13.972,-29.348 -61.842,-29.163 z"
    />
  </g>

  <!-- Right horn/S-shape -->
  <g transform="translate(11.5,11.8)">
    <path
      fill="#cf0f47"
      d="m 373.539,73.906 c 39.222,0.152 41.447,0.54 59.048,10.362 17.803,9.935 24.656,18.279 36.394,44.325 7.088,15.728 7.172,28.888 0.314,49.404 -6.447,19.286 -25.078,46.297 -33.957,49.233 -22.264,7.362 -44.83,28.319 -44.76,41.569 0.071,13.34 1.487,14.681 33.872,32.052 46.2,24.781 54.475,35.771 54.262,72.072 -0.079,13.353 -2.051,27.57 -4.387,31.594 -5.406,9.314 -23.429,24.728 -39.909,34.128 -7.042,4.017 -16.095,6.597 -20.119,5.733 -4.024,-0.863 -17.699,-1.587 -30.392,-1.613 -13.977,-0.026 -22.212,-1.289 -20.883,-3.2 1.207,-1.736 -2.401,-4.147 -8.016,-5.359 -5.615,-1.212 -16.391,-7.106 -23.941,-13.099 -7.55,-5.993 -15.26,-10.896 -17.132,-10.896 -8.58,0 -4.408,-37.771 4.751,-43.023 2.291,-1.314 12.289,-2.412 22.219,-2.438 13.554,-0.037 20.164,1.71 26.52,7.016 15.226,12.713 9.397,23.307 -10.924,19.855 -13.488,-2.292 -17.039,6.727 -6.551,16.648 8.33,7.88 29.901,14.797 42.624,13.664 13.8,-1.229 32.562,-9.379 44.588,-19.372 6.161,-5.12 10.576,-10.384 12.302,-14.368 1.87,-6.69 0.947,-11.915 -1.478,-19.271 -9.133,-17.403 -12.103,-36.56 -44.66,-56.7 -10.979,-6.792 -31.092,-29.507 -31.092,-35.112 0,-1.636 -2.403,-5.107 -5.337,-7.714 -4.675,-4.155 -4.224,-6.719 3.622,-20.712 6.441,-11.487 15.61,-20.317 32.679,-31.455 13.05,-8.516 26.926,-19.467 30.828,-24.337 8.258,-10.306 14.981,-39.232 12.503,-53.792 -6.295,-36.983 -59.509,-56.437 -90.22,-32.985 -12.037,9.192 -14.195,26.896 -2.608,21.385 9.536,-4.536 21.144,-4.251 24.52,0.603 1.519,2.184 2.421,8.401 2.008,13.816 -0.843,11.052 -16.251,24.449 -28.113,24.439 -13.019,-0.011 -27.792,-11.727 -36.958,-29.309 -8.636,-16.566 -8.758,-17.778 -3.458,-33.982 8.804,-26.914 13.972,-29.348 61.842,-29.163 z"
    />
  </g>

  <!-- Crown/eyebrow -->
  <g transform="translate(9.5,11.8)">
    <path
      fill="#cf0f47"
      d="m 353.03,19.247 c -49.498,-1.999 -86.151,6.036 -95.771,20.997 -7.183,11.172 -12.828,11.269 -24.155,0.406 -4.907,-4.706 -15.113,-9.76 -22.683,-11.232 -7.571,-1.472 -18.013,-3.599 -23.205,-4.724 -12.171,-2.636 -39.944,3.983 -39.944,9.518 0,2.341 6.996,6.789 15.546,9.886 29.874,10.822 47.451,19.428 58.634,28.712 6.198,5.145 14.631,11.449 18.74,14.007 4.109,2.558 8.385,4.654 9.502,4.654 4.785,0 18.29,-10.469 18.29,-14.178 0,-5.21 20.092,-21.916 36.579,-30.413 7.042,-3.629 22.132,-7.516 33.529,-8.635 26.9,-2.642 32.314,-4.674 32.314,-12.14 0,-5.076 -3.044,-6.278 -17.375,-6.857 z"
    />
  </g>
</svg>
