<?xml version="1.0" encoding="UTF-8" standalone="no"?>
<!-- Created with Inkscape (http://www.inkscape.org/) -->

<svg
   version="1.1"
   id="svg1"
   width="522.69995"
   height="522.70001"
   viewBox="0 0 522.69995 522.70001"
   xmlns="http://www.w3.org/2000/svg"
   xmlns:svg="http://www.w3.org/2000/svg">
  <defs
     id="defs1">
    <linearGradient
       id="swatch2">
      <stop
         style="stop-color:#171408;stop-opacity:1;"
         offset="0"
         id="stop2" />
    </linearGradient>
    <linearGradient
       id="swatch1">
      <stop
         style="stop-color:#171408;stop-opacity:1;"
         offset="0"
         id="stop1" />
    </linearGradient>
    <clipPath
       clipPathUnits="userSpaceOnUse"
       id="clipPath53">
      <rect
         style="fill:#000000;fill-opacity:0.0218068;stroke:#000000;stroke-width:0.998051;stroke-opacity:1"
         id="rect54"
         width="511.00195"
         height="511.00195"
         x="0.49902534"
         y="0.49902534" />
    </clipPath>
  </defs>
  <g
     id="layer7"
     style="display:none;fill:#9e9e9e;fill-opacity:1;stroke:none;stroke-opacity:1"
     transform="translate(10.94998,11.250122)">
    <rect
       style="display:inline;fill:#f5f5f5;fill-opacity:1;stroke:none;stroke-width:6.972;stroke-linejoin:round;stroke-miterlimit:3.8;stroke-dasharray:none;stroke-opacity:1;paint-order:fill markers stroke"
       id="rect1"
       width="500"
       height="500"
       x="0.6394558"
       y="0" />
    <path
       style="display:none;fill:#9e9e9e;fill-opacity:1;stroke:none;stroke-width:4.7619;stroke-linejoin:round;stroke-miterlimit:3.8;stroke-opacity:1;paint-order:fill markers stroke"
       d="M 2.7210884,252.38095 V 4.0816327 H 249.65986 496.59864 V 252.38095 500.68027 H 249.65986 2.7210884 Z M 180.39748,482.30998 c 11.17378,-0.80574 18.16067,-2.80556 23.68415,-6.77897 7.86993,-5.66138 13.43334,-9.19904 20.01427,-12.7267 8.1486,-4.36798 10.30407,-6.28099 10.84485,-9.62495 1.05284,-6.51033 8.99751,-18.48548 12.26381,-18.48548 3.22423,0 9.25749,6.18605 12.71673,13.03877 1.09091,2.16108 1.98347,4.57033 1.98347,5.35389 0,3.46641 3.58079,6.09429 8.31148,6.09968 3.32342,0.004 6.54439,2.29664 8.06943,5.74425 1.66974,3.77473 4.50718,6.18339 7.92862,6.7305 1.46689,0.23457 4.75859,1.8002 7.31488,3.47918 8.07182,5.30159 16.73848,7.37931 30.96063,7.42238 5.05102,0.0153 10.92499,-0.35851 13.05327,-0.83069 4.55458,-1.01047 8.29249,-3.31705 8.57952,-5.29421 0.30034,-2.06894 -3.8899,-5.41796 -10.7093,-8.55935 -21.71266,-10.00202 -34.46833,-17.68951 -43.77825,-26.38395 -6.47056,-6.04279 -14.44385,-16.49064 -17.86031,-23.4034 -2.49715,-5.05263 -3.02214,-8.14773 -2.25413,-13.28939 0.21099,-1.41251 -0.0958,-1.73315 -2.05071,-2.14295 -4.39443,-0.92122 -4.01986,-4.52641 0.38444,-3.70016 1.23998,0.23262 2.25451,0.24013 2.25451,0.0167 0,-0.22344 -0.68687,-1.59973 -1.52639,-3.05842 -2.05492,-3.5705 -3.65608,-4.20754 -8.3804,-3.3342 -2.648,0.48951 -6.00951,0.48321 -11.01579,-0.0206 -8.88537,-0.89425 -14.24682,-0.92649 -14.76456,-0.0888 -0.21631,0.34999 0.40033,1.42996 1.37029,2.39992 1.45055,1.45056 1.68244,2.15261 1.30649,3.95549 -1.55672,7.46532 -13.91516,23.51636 -29.23453,37.9696 -11.41822,10.77264 -17.58556,15.10662 -22.53807,15.8382 -1.5456,0.22831 -5.58108,1.48524 -8.96774,2.79317 -3.38666,1.30793 -10.38738,3.60876 -15.55717,5.11296 -10.90601,3.17321 -17.10483,5.99967 -19.56169,8.91948 -1.85972,2.21015 -2.22519,5.04491 -0.87071,6.75356 4.56157,5.75426 16.41156,7.65334 38.02891,6.09452 z m -69.33107,-47.57737 c 23.55272,-0.82524 26.34856,-1.26352 26.34856,-4.13047 0,-1.45541 3.55254,-3.57085 7.38757,-4.39909 5.76089,-1.24417 14.07911,-5.95541 25.54185,-14.4663 4.0142,-2.98047 8.73194,-6.09414 10.48388,-6.91927 5.07553,-2.39048 5.17492,-2.46272 6.24656,-4.54009 1.39981,-2.71354 1.28139,-16.70892 -0.19259,-22.76048 -1.61585,-6.63405 -3.6547,-11.64361 -5.58242,-13.71633 -2.86996,-3.08585 -6.03126,-3.59043 -22.45628,-3.58429 -17.17936,0.006 -19.23978,0.48277 -26.23989,6.06643 -5.10672,4.0734 -7.55566,7.73926 -7.95643,11.91012 -0.27778,2.89092 -0.0924,3.56669 1.38339,5.04247 2.68469,2.68469 6.44682,3.34562 15.93041,2.79862 7.21596,-0.4162 8.60826,-0.32598 10.10513,0.65481 4.24299,2.78012 3.40293,7.62797 -2.30115,13.27957 -7.06934,7.00428 -19.33784,11.9053 -34.98524,13.97589 -10.16458,1.34505 -30.280651,-5.67056 -43.968427,-15.33428 -6.327303,-4.46714 -13.165943,-11.42798 -15.049042,-15.31795 -1.653169,-3.41499 -1.95732,-9.68243 -0.707765,-14.58449 0.873261,-3.42584 9.432931,-22.29908 12.495346,-27.55102 6.155135,-10.55585 16.110808,-20.83878 27.452359,-28.35477 8.700139,-5.76553 15.449309,-11.69407 22.344709,-19.62782 6.62017,-7.61707 10.32448,-13.05256 11.2813,-16.55348 0.39952,-1.46185 2.04269,-4.04629 3.69714,-5.81503 4.09193,-4.3746 4.65243,-6.09133 3.29865,-10.10325 -2.42857,-7.19708 -8.58549,-17.1151 -14.66784,-23.62801 -5.57206,-5.96652 -12.20971,-11.26492 -24.357551,-19.44304 C 87.151544,211.27112 76.139687,202.7061 71.693211,198.25963 61.500435,188.06685 54.296695,155.29441 58.99178,140.47619 c 5.348206,-16.87955 21.808825,-30.50844 41.82988,-34.63386 6.55258,-1.35018 17.74977,-1.37334 24.00827,-0.0496 14.63883,3.09615 27.55102,14.51002 27.55102,24.35401 0,5.08082 -1.66436,5.49549 -9.86394,2.45755 -4.98307,-1.84623 -13.86537,-2.16639 -16.94563,-0.6108 -3.72534,1.88137 -4.73245,4.10668 -5.03989,11.13615 -0.16932,3.87138 0.039,7.3418 0.52999,8.82953 2.22159,6.73151 11.49496,15.37247 19.56206,18.228 10.96886,3.88268 25.12624,-2.69895 35.54364,-16.52389 5.03074,-6.67628 11.91814,-20.10351 12.79961,-24.95328 0.82819,-4.55662 0.15516,-8.47839 -3.15311,-18.37313 -6.14164,-18.369106 -10.28339,-22.819126 -23.98853,-25.773976 -5.03559,-1.085681 -9.28374,-1.22649 -36.31495,-1.203694 -35.321023,0.02978 -36.289499,0.14687 -47.95918,5.798061 -18.933147,9.168626 -27.498787,17.400329 -36.628794,35.200799 -9.595827,18.70867 -11.788243,28.89155 -9.296672,43.17928 2.898168,16.61932 12.959343,37.28 25.604326,52.57863 4.622732,5.59284 8.176828,8.27996 13.858555,10.47793 15.123769,5.85061 31.159615,18.99189 36.707595,30.08167 2.07433,4.14634 2.40805,5.47804 2.40805,9.60926 0,3.50044 -0.3907,5.60295 -1.44644,7.78381 -2.41887,4.99674 -4.98952,6.69406 -36.30866,23.97362 -22.627532,12.48418 -34.704798,22.27128 -39.977982,32.39709 -4.520624,8.68071 -5.558874,14.65018 -5.546041,31.88723 0.01205,16.18122 1.175109,26.0281 3.646483,30.8724 5.739762,11.25086 31.294378,31.52604 46.595546,36.96918 4.704511,1.67355 6.16447,1.89992 10.24798,1.58896 2.619048,-0.19944 13.262194,-0.66045 23.651444,-1.02446 z m 311.86884,-1.03855 c 10.05916,-3.17769 26.71675,-14.60922 38.6612,-26.53186 7.87959,-7.8652 9.31514,-10.40596 10.96516,-19.4071 1.66907,-9.10505 1.68021,-34.83835 0.0183,-42.17687 -3.8486,-16.99384 -14.8023,-27.91486 -44.34857,-44.21629 -31.31913,-17.27956 -33.88979,-18.97689 -36.30866,-23.97362 -1.05574,-2.18086 -1.44644,-4.28337 -1.44644,-7.78381 0,-7.10705 3.07179,-12.8837 11.18443,-21.03284 8.31757,-8.355 17.49618,-14.43679 28.1486,-18.65138 4.48148,-1.77308 6.48362,-3.05056 9.61847,-6.13711 10.427,-10.26636 21.51265,-28.88658 26.53824,-44.57542 5.44045,-16.98398 5.32944,-29.17676 -0.39172,-43.02326 -6.20781,-15.0243 -12.49194,-25.44766 -19.58081,-32.4783 -5.81545,-5.767676 -10.99252,-9.238982 -21.84374,-14.646588 -12.65779,-6.307891 -13.02413,-6.355632 -48.97959,-6.383136 -27.0533,-0.02069 -31.27702,0.119885 -36.33026,1.209197 -13.89122,2.994483 -18.57874,8.369708 -24.90616,28.560067 -2.15254,6.86859 -2.47854,8.73855 -2.26402,12.98657 0.22442,4.44422 0.68317,5.84442 4.39182,13.4046 7.21862,14.71538 15.91965,24.35982 26.40269,29.26542 9.07308,4.24581 16.93698,3.28716 25.98219,-3.16736 4.7447,-3.38575 9.83726,-9.61038 11.17247,-13.65612 0.48805,-1.4788 0.69986,-4.94548 0.53394,-8.73903 -0.30797,-7.04149 -1.21007,-9.10759 -4.81901,-11.03701 -3.29689,-1.7626 -11.90568,-1.53787 -17.17046,0.44822 -8.08136,3.04862 -9.86395,2.59948 -9.86395,-2.48531 0,-9.01628 10.0105,-18.73903 24.14966,-23.4555 4.1722,-1.39174 6.06768,-1.58823 15.30612,-1.58663 12.35936,0.002 17.46523,1.14179 27.55102,6.14957 14.52515,7.21198 24.47772,19.34038 27.32961,33.30439 2.2436,10.98557 -1.38542,31.52532 -7.95597,45.02971 -3.12899,6.43098 -3.80662,7.30869 -9.33298,12.08874 -5.83064,5.04322 -13.00707,10.32731 -28.74814,21.16754 -8.7832,6.04864 -19.47752,16.225 -23.42036,22.28604 -4.96496,7.63227 -8.55243,15.44774 -8.55243,18.63188 0,2.58016 0.40173,3.3927 3.10761,6.28551 1.70918,1.82725 3.70664,4.89883 4.43881,6.82571 1.74239,4.58561 4.56714,8.70878 11.18454,16.32555 6.86576,7.90266 13.38214,13.62589 22.1919,19.49078 11.34351,7.55168 21.48083,17.90796 27.1994,27.78691 3.41056,5.89181 11.96182,24.63851 12.87764,28.23129 1.27537,5.00337 0.94756,11.16503 -0.78434,14.74267 -1.95048,4.02917 -9.89812,11.97371 -16.10889,16.10262 -14.22555,9.45713 -32.20081,15.48902 -42.97749,14.42183 -14.22076,-1.40827 -29.30085,-7.67385 -35.81289,-14.8798 -4.75026,-5.25643 -5.24113,-9.84209 -1.32802,-12.40606 1.49687,-0.9808 2.88917,-1.07101 10.10513,-0.65481 9.48359,0.54699 13.24572,-0.11393 15.93042,-2.79863 1.48162,-1.48162 1.66168,-2.1462 1.37888,-5.08932 -0.412,-4.2878 -3.00068,-7.98334 -8.62792,-12.31706 -6.52491,-5.02503 -9.35821,-5.62951 -26.24417,-5.59917 -16.55054,0.0297 -18.99664,0.49949 -22.09246,4.24259 -4.4492,5.37944 -7.89502,22.69649 -6.33198,31.82149 0.41963,2.44973 1.11606,4.87953 1.54764,5.39956 0.43158,0.52002 2.67582,1.83929 4.98721,2.93172 2.31138,1.09243 7.96908,4.7721 12.57267,8.17704 9.85284,7.28745 16.37086,11.0085 22.92236,13.08607 6.55045,2.07723 8.50341,3.1607 8.50341,4.71756 0,0.72552 0.61694,1.64931 1.37098,2.05286 1.95571,1.04667 13.50598,1.97176 26.18004,2.09683 5.98639,0.0591 13.02721,0.32733 15.64626,0.59614 8.58207,0.88082 11.0552,0.7341 16.47266,-0.97728 z M 251.76924,342.08293 c 5.70571,-1.91035 8.95131,-6.10891 8.7943,-11.37646 -0.0517,-1.7355 -0.0933,-3.7309 -0.0923,-4.43423 0.002,-1.54189 2.43843,-4.27083 5.00497,-5.60604 2.43293,-1.26572 2.37253,-2.49144 -0.17007,-3.45117 -1.59128,-0.60064 -2.04081,-1.18555 -2.04081,-2.65544 0,-5.32462 7.9326,-14.6254 17.0068,-19.94006 13.81914,-8.09372 30.71271,-23.56196 35.5165,-32.51993 1.40218,-2.61474 1.96215,-5.19889 2.84301,-13.12001 1.34293,-12.07622 1.35761,-16.0019 0.0824,-22.02102 -1.97423,-9.31835 -6.8574,-17.13948 -17.68119,-28.31911 -14.72296,-15.207 -31.54452,-37.9056 -34.61382,-46.70707 -0.50111,-1.43696 -1.12486,-5.52083 -1.3861,-9.07525 -1.17589,-15.9985 -5.97914,-25.15934 -13.19591,-25.16752 -2.98014,-0.003 -5.50511,1.37933 -8.42919,4.61594 -4.50995,4.99198 -7.35555,12.4191 -11.38341,29.71115 -3.12171,13.40188 -5.97169,16.88183 -35.14637,42.9153 -24.72583,22.06361 -27.82549,25.74388 -29.89059,35.48949 -1.13825,5.37162 -1.27436,15.52682 -0.26672,19.89972 2.49107,10.81066 10.05703,19.45332 29.19768,33.35274 16.50814,11.98775 25.23683,20.52903 31.22815,30.55767 3.48982,5.84147 10.03936,13.54808 13.39193,15.75782 1.46236,0.96386 4.03638,2.64176 5.72005,3.72867 2.87038,1.85298 2.9552,1.99127 1.36055,2.21827 -3.80817,0.54207 -5.30146,3.94839 -2.56972,5.86177 1.79649,1.25831 3.58571,1.33413 6.71991,0.28477 z m 3.27089,-258.619597 c 5.33965,-3.15019 10.61307,-8.478626 11.17316,-11.289728 0.90226,-4.528429 14.73834,-16.51868 28.86212,-25.011708 10.96519,-6.593675 20.97148,-9.430617 42.73252,-12.115343 21.77183,-2.686057 25.73025,-4.490021 25.31831,-11.538252 -0.29937,-5.12212 -1.98116,-5.753503 -17.36074,-6.517635 -24.26732,-1.205715 -50.07251,1.053022 -66.53583,5.823905 -12.31043,3.567426 -19.51965,7.970855 -24.5184,14.97598 -3.24886,4.55286 -6.54424,7.107407 -9.16862,7.107407 -2.50519,0 -7.19936,-2.594868 -11.04345,-6.104646 -8.26187,-7.543357 -15.3754,-10.581777 -33.41832,-14.274071 -15.72557,-3.218069 -22.08303,-3.487035 -32.45617,-1.373122 -8.43487,1.718916 -13.75251,3.681477 -16.41082,6.056679 -1.81978,1.625981 -1.96216,2.01398 -1.23652,3.369838 1.69036,3.158464 5.07334,4.822223 28.58213,14.056756 21.14718,8.306868 33.12034,14.80557 44.81743,24.325668 12.12708,9.870082 22.12954,15.85398 25.24173,15.100694 0.95803,-0.231884 3.3977,-1.398476 5.42147,-2.592422 z"
       id="path2" />
  </g>
  <g
     id="layer8"
     transform="translate(10.94998,11.250122)">
    <rect
       style="fill:#333333;fill-opacity:1;stroke:#333333;stroke-width:10.848;stroke-linejoin:round;stroke-miterlimit:3.8;stroke-dasharray:none;stroke-opacity:1;paint-order:fill markers stroke"
       id="rect2"
       width="511.85199"
       height="511.85199"
       x="-5.52598"
       y="-5.8261223"
       rx="77.013" />
  </g>
  <g
     id="layer6"
     style="display:inline"
     transform="translate(10.94998,11.250122)">
    <path
       d="m 237.55741,385.38576 c -2.29853,0.11379 -3.23064,0.48932 -2.24333,1.09845 5.31261,3.27788 4.26676,7.31466 -5.62979,21.72121 -10.15769,14.78719 -38.11323,40.63594 -43.94519,40.63594 -2.13419,0 -6.73728,1.31966 -10.23074,2.93341 -3.4935,1.61368 -13.2593,4.74761 -21.70474,6.96525 -20.9599,5.50374 -24.36771,16.04422 -6.59426,20.40051 4.02373,0.98625 15.99183,1.39708 26.59858,0.91431 14.45005,-0.65772 21.78684,-2.88818 29.26348,-8.88914 5.4881,-4.40492 14.50741,-10.01204 20.04005,-12.46378 5.53259,-2.45178 10.05928,-6.11648 10.05928,-8.1399 0,-6.70507 9.07501,-21.1745 13.29576,-21.20052 5.13149,-0.0326 15.96772,14.21348 15.96772,20.99101 0,2.89783 3.212,4.99061 7.65878,4.99061 4.58199,0 8.42888,2.61174 9.57353,6.50175 1.0522,3.57597 4.06913,6.50174 6.70857,6.50174 2.63945,0 7.01457,1.96714 9.72356,4.37471 10.95865,9.73913 54.12595,10.25063 54.12595,0.64126 0,-2.31972 -7.81884,-7.24115 -17.37517,-10.93994 -9.55635,-3.69878 -25.03443,-12.69861 -34.39313,-19.99414 -16.36666,-12.75853 -31.11784,-36.25258 -26.72721,-42.56616 1.16143,-1.6701 0.36594,-3.03498 -1.76465,-3.03498 -2.13063,0 -3.8723,-1.41743 -3.8723,-3.14929 0,-1.73183 2.46911,-2.3054 5.4869,-1.27623 0.26703,0.0911 0.52879,0.16546 0.78589,0.22853 -0.10143,-0.17685 -0.1986,-0.35947 -0.29298,-0.55239 -0.43771,-0.89421 -0.85029,-1.80175 -1.40033,-2.64768 -0.47828,-0.913 -1.01271,-1.82094 -1.65749,-2.65403 -1.00747,-0.25651 -1.78641,-0.66546 -2.19332,-1.15559 -0.66937,0.0228 -1.33994,0.0523 -2.0076,0.0952 -0.0626,0.0163 -0.11664,0.0292 -0.16422,0.0379 -0.70914,0.28478 -1.69414,-0.048 -2.3648,0.29194 -0.50609,0.1219 -1.0004,0.16057 -1.50034,0.15862 0.0258,0.7963 -3.80497,0.52645 -12.78845,-0.3492 -4.47443,-0.43616 -8.13943,-0.58378 -10.43801,-0.46989 z"
       style="display:inline;fill:#ffffff;stroke:none;stroke-width:1.9772;stroke-dasharray:none;stroke-opacity:1"
       id="path1-18" />
  </g>
  <g
     id="g1"
     style="display:inline"
     transform="translate(10.94998,11.250122)">
    <path
       id="path1"
       style="display:inline;fill:#ffffff;stroke:none;stroke-width:1.96162;stroke-dasharray:none;stroke-opacity:1"
       d="m 256.51499,143.93555 c -6.88861,0.17896 -14.59957,9.774 -18.57795,29.06515 -4.53567,21.9929 -4.33399,21.73193 -40.72119,53.7208 -24.69975,21.71379 -27.85482,25.87184 -29.3944,38.70316 -2.54437,21.20543 4.41972,32.67859 31.20185,51.38373 15.41051,10.76292 26.63533,21.71234 31.95322,31.17542 4.50881,8.02336 12.33417,16.58688 17.38712,19.03031 5.05297,2.4434 7.14483,4.50236 4.6498,4.57332 -2.495,0.0709 -4.53639,1.58368 -4.53639,3.35756 0,4.88158 9.40819,3.85739 14.48104,-1.57485 2.46373,-2.63823 3.54883,-6.95106 2.40994,-9.58758 -1.15202,-2.66808 0.67432,-6.21843 4.12529,-8.00645 3.41014,-1.76691 4.38716,-3.25961 2.16894,-3.31349 -8.85794,-0.21544 -0.12629,-16.40091 12.61687,-23.38944 17.64115,-9.67486 40.21141,-31.59519 40.7708,-39.59765 0.24787,-3.54779 1.10665,-11.5303 1.90669,-17.73894 0.80001,-6.2086 -0.55192,-15.64251 -2.99826,-20.96418 -4.21437,-9.16774 -6.80347,-12.74198 -15.85611,-21.88392 -18.313,-18.49365 -37.85051,-46.30118 -37.85051,-53.86571 0,-20.80114 -6.40368,-31.27778 -13.73675,-31.08724 z m -5.26649,64.59347 c 0.20395,0.006 0.37579,0.0456 0.51036,0.11967 1.67298,0.91883 4.03691,6.08954 5.25226,11.48998 1.21532,5.40049 5.09981,10.72221 8.63334,11.82386 10.51539,3.2785 30.01106,21.23234 30.01106,27.63521 0,9.09682 -16.25992,27.60887 -21.78883,34.72195 -10.0799,12.96804 -14.29039,13.23021 -24.5745,12.21443 -6.72044,-0.66379 -10.07432,9.09946 -12.80113,2.78431 -1.10681,-2.56331 -8.56282,-7.93048 -16.57199,-11.93097 -21.32578,-10.65197 -28.21409,-28.61084 -18.40077,-47.98836 4.89158,-9.65892 43.40255,-41.07237 49.7302,-40.8701 z"
       clip-path="url(#clipPath53)"
       transform="matrix(1.0079413,0,0,1.0079413,-7.3809653,-34.033289)" />
    <rect
       style="display:none;fill:#800000;fill-opacity:0.0218068;stroke:#800000;stroke-width:6.998;stroke-linecap:butt;stroke-linejoin:round;stroke-dasharray:none;stroke-opacity:1;paint-order:fill markers stroke"
       id="rect55"
       width="509.00195"
       height="509.00195"
       x="0.49902153"
       y="0.49902153" />
  </g>
  <g
     id="layer4"
     style="display:none"
     transform="translate(10.94998,11.250122)">
    <path
       d="m 383.08039,79.304836 c -6.49137,0.01262 -13.67834,0.306641 -19.99619,0.881903 -38.00434,3.460361 -60.81492,24.419561 -59.19326,54.394151 1.16942,21.61456 8.11311,27.23032 33.6781,27.23032 22.79393,0 26.61747,-3.21454 21.04967,-17.68037 -3.34845,-8.69965 -6.68091,-9.53136 -23.33339,-5.81694 -6.62382,1.47748 -8.80865,0.7597 -8.80865,-2.88734 0,-16.53268 24.01944,-34.42774 49.99722,-37.25139 17.36586,-1.88758 36.30422,6.80218 51.58767,23.67247 8.71381,9.61861 10.29364,14.48267 12.04393,37.11248 1.80822,23.37904 1.2611,26.88153 -5.32191,34.23121 -8.01267,8.94587 -34.55309,25.39875 -61.53136,38.13934 -23.91298,11.29295 -26.40509,18.51158 -21.38952,61.92056 0.95169,8.23695 13.06059,18.61514 33.05959,28.33571 27.55939,13.39529 30.62932,17.81163 31.25167,44.92879 0.51899,22.61433 0.0661,24.13928 -9.36596,31.19286 -5.45469,4.07906 -17.08277,9.20247 -25.83462,11.38016 -14.27681,3.55243 -17.0898,3.3454 -27.36389,-1.98728 -6.29813,-3.26899 -11.96256,-8.30228 -12.58767,-11.18691 -0.94801,-4.37479 1.7967,-5.24308 16.52301,-5.24308 9.71024,0 17.65126,-0.63096 17.65126,-1.4014 0,-3.4866 -8.91275,-18.92963 -12.10506,-20.97242 -6.34627,-4.06101 -38.28501,-2.53225 -45.88516,2.19872 -6.27152,3.90379 -7.17833,7.10451 -6.18507,21.90867 0.63963,9.53416 3.06734,19.37814 5.39663,21.87246 3.62215,3.87872 17.09081,10.16333 37.89891,17.68641 10.8777,3.93277 57.26424,-0.11783 69.30693,-6.05253 28.4041,-13.99742 35.08841,-24.8549 35.01706,-56.88886 -0.051,-23.00359 -10.20469,-38.03874 -38.23874,-56.62916 -12.33918,-8.18259 -23.25256,-15.83702 -24.25098,-17.00988 -0.99838,-1.17288 -4.74035,-3.56276 -8.31928,-5.30956 -4.37872,-2.13711 -6.78551,-7.19518 -7.35412,-15.46352 -1.40781,-20.47159 3.79677,-26.57278 36.77065,-43.13475 26.2772,-13.19837 39.86387,-24.34662 47.55715,-39.01522 4.30646,-8.21059 7.82992,-16.39942 7.82992,-18.19384 0,-1.79442 1.94159,-6.02605 4.31597,-9.40497 3.43612,-4.88978 3.43612,-7.39647 0,-12.28624 -2.37438,-3.37889 -4.31597,-9.82794 -4.31597,-14.32794 0,-7.99999 -10.13859,-25.43191 -20.77101,-35.71713 -7.47616,-7.23201 -37.65357,-19.999133 -52.9674,-22.410025 -3.53123,-0.55591 -9.32477,-0.82821 -15.81613,-0.815459 z"
       style="display:inline;fill:#800000;stroke-width:3.28063"
       id="path1-1" />
  </g>
  <g
     id="layer3"
     style="display:inline"
     transform="translate(10.94998,11.250122)">
    <path
       d="m 126.03144,74.591118 c -39.221945,0.15192 -41.447172,0.539979 -59.048453,10.362172 -17.802796,9.93462 -24.655995,18.27944 -36.393581,44.32491 -7.08793,15.72817 -7.171527,28.88832 -0.314355,49.40444 6.446522,19.28582 25.078323,46.29705 33.957337,49.23301 22.263719,7.36179 44.829532,28.31899 44.759672,41.56926 -0.0706,13.33989 -1.4867,14.68058 -33.871609,32.0516 -46.199556,24.78107 -54.474982,35.77116 -54.261726,72.07166 0.07852,13.35324 2.050779,27.5698 4.38666,31.59444 5.405734,9.31376 23.429164,24.72811 39.908624,34.12785 7.041889,4.01662 16.094688,6.59655 20.118631,5.73348 4.023722,-0.86301 17.69942,-1.58672 30.3923,-1.61273 13.97731,-0.026 22.21214,-1.2889 20.88305,-3.20008 -1.20696,-1.73559 2.40119,-4.14716 8.01603,-5.35889 5.61489,-1.21163 16.39063,-7.10612 23.94088,-13.09871 7.55028,-5.99264 15.25981,-10.89549 17.13225,-10.89549 8.57969,0 4.40823,-37.77136 -4.75099,-43.02334 -2.29085,-1.31363 -12.28944,-2.41215 -22.21909,-2.43817 -13.55385,-0.0373 -20.16412,1.7095 -26.52005,7.01605 -15.22629,12.71253 -9.39681,23.30677 10.92384,19.8545 13.48831,-2.29153 17.03876,6.727 6.55141,16.64802 -8.32972,7.8799 -29.90143,14.79666 -42.62353,13.66383 -13.800262,-1.22887 -32.561564,-9.37884 -44.588183,-19.3719 -6.161305,-5.11953 -10.575926,-10.38379 -12.301881,-14.36818 -1.870172,-6.69038 -0.947185,-11.91493 1.478117,-19.2708 9.133054,-17.40286 12.10269,-36.56045 44.659637,-56.69982 10.97942,-6.79176 31.09242,-29.50681 31.09242,-35.11199 0,-1.63638 2.40273,-5.1068 5.3369,-7.71449 4.67461,-4.15442 4.22388,-6.71864 -3.62224,-20.71159 C 122.61233,237.88275 113.4436,229.05336 96.37503,217.91538 83.32441,209.39929 69.44902,198.44839 65.546957,193.57827 57.289348,183.2719 50.566259,154.34611 53.044255,139.7864 c 6.29439,-36.98338 59.508585,-56.437417 90.219475,-32.98496 12.03674,9.19189 14.19539,26.89607 2.60771,21.38468 -9.53592,-4.53556 -21.14379,-4.25115 -24.51958,0.60318 -1.51869,2.18381 -2.42083,8.40112 -2.00759,13.81621 0.84337,11.05182 16.25083,24.44848 28.11322,24.43874 13.01924,-0.0106 27.79239,-11.72711 36.958,-29.30868 8.63612,-16.56582 8.75848,-17.77753 3.45791,-33.98182 -8.80389,-26.914252 -13.97172,-29.34806 -61.84196,-29.162632 z"
       style="display:inline;fill:#ffffff;fill-opacity:1;stroke:none;stroke-width:1.9772;stroke-dasharray:none;stroke-opacity:1"
       id="path1-3" />
    <path
       d="m 373.53855,73.905872 c 39.22194,0.151919 41.44717,0.539979 59.04845,10.362172 17.8028,9.934626 24.656,18.279446 36.39358,44.324916 7.08793,15.72817 7.17153,28.88832 0.31436,49.40444 -6.44653,19.28582 -25.07833,46.29705 -33.95734,49.23301 -22.26372,7.36179 -44.82954,28.31899 -44.75968,41.56926 0.0706,13.33989 1.48671,14.68058 33.87162,32.0516 46.19955,24.78107 54.47498,35.77116 54.26172,72.07166 -0.0785,13.35324 -2.05078,27.5698 -4.38666,31.59444 -5.40573,9.31377 -23.42916,24.72811 -39.90862,34.12785 -7.04189,4.01662 -16.09469,6.59655 -20.11863,5.73348 -4.02372,-0.86301 -17.69943,-1.58672 -30.3923,-1.61273 -13.97731,-0.026 -22.21214,-1.2889 -20.88306,-3.20008 1.20697,-1.73559 -2.40119,-4.14716 -8.01602,-5.35889 -5.61489,-1.21163 -16.39063,-7.10612 -23.94088,-13.09871 -7.55028,-5.99264 -15.25981,-10.89549 -17.13226,-10.89549 -8.57969,0 -4.40823,-37.77136 4.75099,-43.02334 2.29085,-1.31363 12.28945,-2.41215 22.2191,-2.43817 13.55385,-0.0373 20.16411,1.7095 26.52005,7.01605 15.22629,12.71253 9.39681,23.30677 -10.92384,19.8545 -13.48831,-2.29153 -17.03877,6.727 -6.55141,16.64802 8.32972,7.8799 29.90143,14.79666 42.62353,13.66383 13.80026,-1.22887 32.56156,-9.37884 44.58818,-19.3719 6.16131,-5.11953 10.57593,-10.38379 12.30188,-14.36818 1.87017,-6.69038 0.94719,-11.91493 -1.47812,-19.2708 -9.13305,-17.40286 -12.10269,-36.56045 -44.65964,-56.69982 -10.97941,-6.79176 -31.09241,-29.50681 -31.09241,-35.11199 0,-1.63638 -2.40274,-5.1068 -5.33691,-7.71449 -4.67461,-4.15442 -4.22388,-6.71864 3.62224,-20.71159 6.44118,-11.48741 15.60991,-20.3168 32.67849,-31.45478 13.05062,-8.51609 26.92601,-19.46699 30.82807,-24.33711 8.25761,-10.30637 14.9807,-39.23216 12.5027,-53.79187 -6.29439,-36.98338 -59.50859,-56.437423 -90.21948,-32.98496 -12.03673,9.19189 -14.19539,26.89607 -2.60771,21.38468 9.53593,-4.53556 21.14379,-4.25115 24.51958,0.60318 1.51869,2.18381 2.42084,8.40112 2.0076,13.81621 -0.84337,11.05182 -16.25084,24.44848 -28.11322,24.43874 -13.01925,-0.0106 -27.7924,-11.72711 -36.95801,-29.30868 -8.63611,-16.56582 -8.75848,-17.77753 -3.45791,-33.98182 8.8039,-26.914259 13.97173,-29.348066 61.84197,-29.162638 z"
       style="display:inline;fill:#ffffff;fill-opacity:1;stroke:none;stroke-width:1.9772;stroke-dasharray:none;stroke-opacity:1"
       id="path1-3-3" />
  </g>
  <g
     id="layer5"
     transform="translate(8.9499798,11.250122)"
     style="display:inline">
    <path
       d="m 353.02972,19.246623 c -49.49776,-1.999284 -86.15143,6.03604 -95.7707,20.997345 -7.18318,11.172365 -12.82785,11.26865 -24.15519,0.406361 -4.90723,-4.705735 -15.11261,-9.759872 -22.68348,-11.232029 -7.57085,-1.472167 -18.01334,-3.599407 -23.20502,-4.72393 -12.1708,-2.636235 -39.94433,3.98299 -39.94433,9.517709 0,2.341505 6.99581,6.788596 15.54623,9.885956 29.87413,10.82182 47.45137,19.428073 58.63407,28.71184 6.19765,5.145218 14.63065,11.448858 18.73977,14.006698 4.10912,2.557841 8.38546,4.654093 9.50204,4.654093 4.7852,0 18.28967,-10.469319 18.28967,-14.17814 0,-5.2102 20.09163,-21.915581 36.57931,-30.413461 7.04153,-3.62926 22.13163,-7.515913 33.5287,-8.635138 26.9003,-2.641711 32.3141,-4.673844 32.3141,-12.139996 0,-5.0758 -3.04405,-6.278454 -17.37517,-6.857308 z"
       style="display:inline;fill:#ffffff;fill-opacity:1;stroke:none;stroke-width:1.9772;stroke-dasharray:none;stroke-opacity:1"
       id="path1-36" />
  </g>
</svg>
