<?xml version="1.0" encoding="UTF-8" standalone="no"?>
<!-- Created with Inkscape (http://www.inkscape.org/) -->

<svg
   version="1.1"
   id="svg1"
   width="500"
   height="500"
   viewBox="0 0 500 500"
   sodipodi:docname="semops-red.svg"
   inkscape:version="1.4.2 (2aeb623e1d, 2025-05-12)"
   xmlns:inkscape="http://www.inkscape.org/namespaces/inkscape"
   xmlns:sodipodi="http://sodipodi.sourceforge.net/DTD/sodipodi-0.dtd"
   xmlns="http://www.w3.org/2000/svg"
   xmlns:svg="http://www.w3.org/2000/svg">
  <defs
     id="defs1">
    <clipPath
       clipPathUnits="userSpaceOnUse"
       id="clipPath53">
      <rect
         style="fill:#000000;fill-opacity:0.0218068;stroke:#000000;stroke-width:0.998051;stroke-opacity:1"
         id="rect54"
         width="511.00195"
         height="511.00195"
         x="0.49902534"
         y="0.49902534" />
    </clipPath>
  </defs>
  <sodipodi:namedview
     id="namedview1"
     pagecolor="#ffffff"
     bordercolor="#000000"
     borderopacity="0.25"
     inkscape:showpageshadow="2"
     inkscape:pageopacity="0.0"
     inkscape:pagecheckerboard="0"
     inkscape:deskcolor="#d1d1d1"
     showgrid="true"
     inkscape:zoom="1.1089975"
     inkscape:cx="255.63628"
     inkscape:cy="259.24315"
     inkscape:window-width="1920"
     inkscape:window-height="1011"
     inkscape:window-x="0"
     inkscape:window-y="32"
     inkscape:window-maximized="1"
     inkscape:current-layer="layer3"
     inkscape:document-units="px"
     showborder="false"
     showguides="true">
    <inkscape:grid
       id="grid53"
       units="px"
       originx="0"
       originy="0"
       spacingx="1"
       spacingy="1"
       empcolor="#0099e5"
       empopacity="0.30196078"
       color="#0099e5"
       opacity="0.14901961"
       empspacing="5"
       enabled="true"
       visible="true" />
    <sodipodi:guide
       position="249.77513,510.82058"
       orientation="1,0"
       id="guide1"
       inkscape:locked="false" />
    <sodipodi:guide
       position="56.808063,400.81132"
       orientation="0,-1"
       id="guide2"
       inkscape:locked="false" />
    <sodipodi:guide
       position="125.33843,99.638412"
       orientation="0,-1"
       id="guide3"
       inkscape:locked="false" />
    <sodipodi:guide
       position="374.21184,450.40566"
       orientation="0,-1"
       id="guide4"
       inkscape:locked="false" />
    <sodipodi:guide
       position="358.88268,49.142356"
       orientation="0,-1"
       id="guide5"
       inkscape:locked="false" />
    <sodipodi:guide
       position="521.19144,249.32315"
       orientation="0,-1"
       id="guide6"
       inkscape:locked="false" />
  </sodipodi:namedview>
  <g
     inkscape:groupmode="layer"
     id="layer1"
     inkscape:label="Image 1">
    <g
       inkscape:groupmode="layer"
       id="layer2"
       inkscape:label="circle"
       transform="translate(-34.277264,-6.3142329)"
       style="display:inline" />
  </g>
  <g
     inkscape:groupmode="layer"
     id="layer6"
     inkscape:label="feet">
    <path
       d="m 238.72193,392.19444 c -2.1867,0.10825 -3.07346,0.46551 -2.13418,1.045 5.05412,3.1184 4.05916,6.95877 -5.35588,20.66438 -9.66347,14.06773 -36.25885,38.65882 -41.80706,38.65882 -2.03035,0 -6.40948,1.25545 -9.73297,2.79068 -3.32352,1.53517 -12.61417,4.51662 -20.6487,6.62636 -19.94011,5.23596 -23.18212,15.2636 -6.27342,19.40794 3.82795,0.93826 15.21375,1.3291 25.30444,0.86982 13.74699,-0.62572 20.72681,-2.74765 27.83968,-8.45664 5.22108,-4.1906 13.80156,-9.52491 19.06501,-11.85736 5.2634,-2.33249 9.56985,-5.81889 9.56985,-7.74386 0,-6.37884 8.63347,-20.14427 12.64886,-20.16902 4.88182,-0.031 15.19082,13.52193 15.19082,19.9697 0,2.75684 3.05572,4.7478 7.28615,4.7478 4.35905,0 8.01877,2.48467 9.10773,6.18541 1.00101,3.40198 3.87115,6.1854 6.38217,6.1854 2.51103,0 6.67328,1.87143 9.25046,4.16186 10.42547,9.26528 51.49248,9.75189 51.49248,0.61006 0,-2.20685 -7.43841,-6.88883 -16.52979,-10.40766 -9.09139,-3.51882 -23.81639,-12.08077 -32.71975,-19.02134 -15.57034,-12.13777 -29.60381,-34.48873 -25.42681,-40.49512 1.10492,-1.58885 0.34814,-2.88732 -1.67879,-2.88732 -2.02696,0 -3.68389,-1.34846 -3.68389,-2.99606 0,-1.64757 2.34897,-2.19323 5.21993,-1.21414 0.25404,0.0867 0.50307,0.15741 0.74766,0.21741 -0.0965,-0.16824 -0.18894,-0.34198 -0.27873,-0.52551 -0.41641,-0.8507 -0.80892,-1.71409 -1.3322,-2.51886 -0.45501,-0.86858 -0.96343,-1.73234 -1.57684,-2.5249 -0.95845,-0.24403 -1.6995,-0.63308 -2.08661,-1.09936 -0.6368,0.0217 -1.27474,0.0498 -1.90992,0.0906 -0.0596,0.0155 -0.11096,0.0278 -0.15623,0.0361 -0.67464,0.27092 -1.61171,-0.0457 -2.24974,0.27773 -0.48147,0.11597 -0.95173,0.15276 -1.42734,0.15091 0.0245,0.75755 -3.61984,0.50083 -12.16624,-0.33221 -4.25673,-0.41494 -7.74341,-0.55538 -9.93015,-0.44703 z"
       style="display:inline;fill:#800000;stroke-width:3.28063"
       id="path1-18" />
  </g>
  <g
     inkscape:groupmode="layer"
     inkscape:label="middle"
     id="g1">
    <path
       id="path1"
       style="display:inline;fill:#800000;stroke-width:3.42124"
       d="m 256.51499,143.93555 c -6.88861,0.17896 -14.59957,9.774 -18.57795,29.06515 -4.53567,21.9929 -4.33399,21.73193 -40.72119,53.7208 -24.69975,21.71379 -27.85482,25.87184 -29.3944,38.70316 -2.54437,21.20543 4.41972,32.67859 31.20185,51.38373 15.41051,10.76292 26.63533,21.71234 31.95322,31.17542 4.50881,8.02336 12.33417,16.58688 17.38712,19.03031 5.05297,2.4434 7.14483,4.50236 4.6498,4.57332 -2.495,0.0709 -4.53639,1.58368 -4.53639,3.35756 0,4.88158 9.40819,3.85739 14.48104,-1.57485 2.46373,-2.63823 3.54883,-6.95106 2.40994,-9.58758 -1.15202,-2.66808 0.67432,-6.21843 4.12529,-8.00645 3.41014,-1.76691 4.38716,-3.25961 2.16894,-3.31349 -8.85794,-0.21544 -0.12629,-16.40091 12.61687,-23.38944 17.64115,-9.67486 40.21141,-31.59519 40.7708,-39.59765 0.24787,-3.54779 1.10665,-11.5303 1.90669,-17.73894 0.80001,-6.2086 -0.55192,-15.64251 -2.99826,-20.96418 -4.21437,-9.16774 -6.80347,-12.74198 -15.85611,-21.88392 -18.313,-18.49365 -37.85051,-46.30118 -37.85051,-53.86571 0,-20.80114 -6.40368,-31.27778 -13.73675,-31.08724 z m -5.26649,64.59347 c 0.20395,0.006 0.37579,0.0456 0.51036,0.11967 1.67298,0.91883 4.03691,6.08954 5.25226,11.48998 1.21532,5.40049 5.09981,10.72221 8.63334,11.82386 10.51539,3.2785 30.01106,21.23234 30.01106,27.63521 0,9.09682 -13.65305,30.85235 -21.78883,34.72195 -6.71216,3.1925 -7.25042,2.42695 -7.35748,-10.37502 -0.10742,-12.85287 -0.48858,-13.38139 -5.44367,-7.55921 -2.93052,3.44336 -5.33026,9.5213 -5.33026,13.51207 0,3.99111 -1.67234,8.17876 -3.72126,9.30416 -2.04897,1.12539 -3.27378,4.42618 -2.72183,7.33243 1.25999,6.63456 -10.07432,9.09946 -12.80113,2.78431 -1.10681,-2.56331 -8.56282,-7.93048 -16.57199,-11.93097 -21.32578,-10.65197 -28.21409,-28.61084 -18.40077,-47.98836 4.89158,-9.65892 43.40255,-41.07237 49.7302,-40.8701 z"
       sodipodi:nodetypes="sscssssssscsccssssssscssssssssssssss"
       clip-path="url(#clipPath53)"
       transform="matrix(0.95890044,0,0,0.95890044,5.7009025,-20.136834)" />
    <rect
       style="display:none;fill:#800000;fill-opacity:0.0218068;stroke:#800000;stroke-width:6.998;stroke-linecap:butt;stroke-linejoin:round;stroke-dasharray:none;stroke-opacity:1;paint-order:fill markers stroke"
       id="rect55"
       width="509.00195"
       height="509.00195"
       x="0.49902153"
       y="0.49902153" />
  </g>
  <g
     inkscape:groupmode="layer"
     id="layer4"
     inkscape:label="SigmaR">
    <path
       d="m 383.08039,79.304836 c -6.49137,0.01262 -13.67834,0.306641 -19.99619,0.881903 -38.00434,3.460361 -60.81492,24.419561 -59.19326,54.394151 1.16942,21.61456 8.11311,27.23032 33.6781,27.23032 22.79393,0 26.61747,-3.21454 21.04967,-17.68037 -3.34845,-8.69965 -6.68091,-9.53136 -23.33339,-5.81694 -6.62382,1.47748 -8.80865,0.7597 -8.80865,-2.88734 0,-16.53268 24.01944,-34.42774 49.99722,-37.25139 17.36586,-1.88758 36.30422,6.80218 51.58767,23.67247 8.71381,9.61861 10.29364,14.48267 12.04393,37.11248 1.80822,23.37904 1.2611,26.88153 -5.32191,34.23121 -8.01267,8.94587 -34.55309,25.39875 -61.53136,38.13934 -23.91298,11.29295 -26.40509,18.51158 -21.38952,61.92056 0.95169,8.23695 13.06059,18.61514 33.05959,28.33571 27.55939,13.39529 30.62932,17.81163 31.25167,44.92879 0.51899,22.61433 0.0661,24.13928 -9.36596,31.19286 -5.45469,4.07906 -17.08277,9.20247 -25.83462,11.38016 -14.27681,3.55243 -17.0898,3.3454 -27.36389,-1.98728 -6.29813,-3.26899 -11.96256,-8.30228 -12.58767,-11.18691 -0.94801,-4.37479 1.7967,-5.24308 16.52301,-5.24308 9.71024,0 17.65126,-0.63096 17.65126,-1.4014 0,-3.4866 -8.91275,-18.92963 -12.10506,-20.97242 -6.34627,-4.06101 -38.28501,-2.53225 -45.88516,2.19872 -6.27152,3.90379 -7.17833,7.10451 -6.18507,21.90867 0.63963,9.53416 3.06734,19.37814 5.39663,21.87246 3.62215,3.87872 17.09081,10.16333 37.89891,17.68641 10.8777,3.93277 57.26424,-0.11783 69.30693,-6.05253 28.4041,-13.99742 35.08841,-24.8549 35.01706,-56.88886 -0.051,-23.00359 -10.20469,-38.03874 -38.23874,-56.62916 -12.33918,-8.18259 -23.25256,-15.83702 -24.25098,-17.00988 -0.99838,-1.17288 -4.74035,-3.56276 -8.31928,-5.30956 -4.37872,-2.13711 -6.78551,-7.19518 -7.35412,-15.46352 -1.40781,-20.47159 3.79677,-26.57278 36.77065,-43.13475 26.2772,-13.19837 39.86387,-24.34662 47.55715,-39.01522 4.30646,-8.21059 7.82992,-16.39942 7.82992,-18.19384 0,-1.79442 1.94159,-6.02605 4.31597,-9.40497 3.43612,-4.88978 3.43612,-7.39647 0,-12.28624 -2.37438,-3.37889 -4.31597,-9.82794 -4.31597,-14.32794 0,-7.99999 -10.13859,-25.43191 -20.77101,-35.71713 -7.47616,-7.23201 -37.65357,-19.999133 -52.9674,-22.410025 -3.53123,-0.55591 -9.32477,-0.82821 -15.81613,-0.815459 z"
       style="display:inline;fill:#800000;stroke-width:3.28063"
       id="path1-1" />
  </g>
  <g
     inkscape:groupmode="layer"
     id="layer3"
     inkscape:label="SigmaL">
    <path
       d="m 126.91412,83.202509 c -37.313618,0.144528 -39.430578,0.513707 -56.175478,9.858006 -16.93661,9.451255 -23.45637,17.390065 -34.62287,42.168305 -6.74307,14.96292 -6.8226,27.48277 -0.29906,47.00069 6.13287,18.34748 23.85815,44.04449 32.30516,46.83761 21.18049,7.0036 42.648378,26.94114 42.581918,39.54673 -0.0672,12.69084 -1.41437,13.9663 -32.223608,30.49214 -43.95174,23.57536 -51.82453,34.03073 -51.62165,68.56505 0.0747,12.70355 1.951,26.22841 4.17323,30.05723 5.14272,8.86061 22.28923,23.52498 37.96689,32.46738 6.69927,3.82119 15.31161,6.2756 19.13977,5.45452 3.82795,-0.82102 16.838268,-1.50952 28.913578,-1.53426 13.29725,-0.0247 21.13142,-1.22619 19.867,-3.04439 -1.14824,-1.65114 2.28436,-3.94538 7.62601,-5.09815 5.3417,-1.15268 15.59315,-6.76038 22.77605,-12.4614 7.18292,-5.70107 14.51735,-10.36538 16.29869,-10.36538 8.16225,0 4.19375,-35.93361 -4.51983,-40.93006 -2.17939,-1.24971 -11.69151,-2.29479 -21.13804,-2.31954 -12.89439,-0.0355 -19.18304,1.62632 -25.22973,6.67469 -14.48546,12.09401 -8.93961,22.17279 10.39235,18.88849 12.83204,-2.18004 16.20975,6.3997 6.23265,15.83802 -7.92444,7.4965 -28.44659,14.07673 -40.5497,12.99902 -13.128818,-1.16908 -30.977298,-8.92252 -42.418768,-18.42937 -5.86153,-4.87044 -10.06136,-9.87857 -11.70334,-13.6691 -1.77918,-6.36487 -0.9011,-11.33522 1.4062,-18.33319 8.68869,-16.55614 11.51384,-34.78162 42.48675,-53.94112 10.445218,-6.46131 29.579628,-28.07118 29.579628,-33.40364 0,-1.55676 2.28583,-4.85833 5.07724,-7.33914 4.44717,-3.95229 4.01837,-6.39175 -3.446,-19.70388 -6.12779,-10.9285 -14.85042,-19.3283 -31.088528,-29.92437 -12.41565,-8.10174 -25.61594,-18.51983 -29.32815,-23.153 -7.85584,-9.80492 -14.25182,-37.32334 -11.89439,-51.17465 5.98814,-35.18397 56.613228,-53.691485 85.829898,-31.3801 11.45109,8.74467 13.50472,25.58746 2.48083,20.34422 -9.07196,-4.31488 -20.11505,-4.04431 -23.32659,0.57384 -1.4448,2.07755 -2.30305,7.99236 -1.90992,13.14399 0.80234,10.5141 15.46016,23.25895 26.74539,23.24968 12.3858,-0.0101 26.44017,-11.15653 35.15983,-27.88268 8.21593,-15.75982 8.33234,-16.91257 3.28967,-32.32845 -8.37555,-25.604755 -13.29194,-27.920147 -58.83308,-27.743741 z"
       style="display:inline;fill:#800000;stroke-width:3.28063"
       id="path1-3"
       inkscape:label="path1-3" />
  </g>
  <g
     inkscape:groupmode="layer"
     id="layer5"
     inkscape:label="topbrow"
     transform="translate(-2)">
    <path
       d="m 348.6733,17.231934 c -47.08947,-1.90201 -81.95977,5.74236 -91.11102,19.97573 -6.83369,10.62878 -12.20372,10.72038 -22.97994,0.38659 -4.66847,-4.47678 -14.37731,-9.28501 -21.57982,-10.68554 -7.2025,-1.40054 -17.13691,-3.42428 -22.07599,-4.49409 -11.57864,-2.50797 -38.00086,3.7892 -38.00086,9.05463 0,2.22758 6.65543,6.4583 14.78983,9.40496 28.42062,10.29529 45.14265,18.48281 55.78126,27.31488 5.89611,4.89488 13.91881,10.89182 17.828,13.32521 3.90919,2.43339 7.97747,4.42765 9.03972,4.42765 4.55238,0 17.3998,-9.95994 17.3998,-13.48831 0,-4.9567 19.11408,-20.84929 34.79956,-28.93371 6.69893,-3.45268 21.05483,-7.15023 31.89738,-8.215 25.59148,-2.51318 30.74187,-4.44644 30.74187,-11.54933 0,-4.82884 -2.89594,-5.97298 -16.52979,-6.52367 z"
       style="display:inline;fill:#800000;stroke-width:3.28063"
       id="path1-36" />
  </g>
</svg>
