<?xml version="1.0" encoding="UTF-8" standalone="no"?>
<!-- Created with Inkscape (http://www.inkscape.org/) -->

<svg
   version="1.1"
   id="svg1"
   width="522.69995"
   height="522.70001"
   viewBox="0 0 522.69995 522.70001"
   xmlns="http://www.w3.org/2000/svg"
   xmlns:svg="http://www.w3.org/2000/svg">
  <defs
     id="defs1">
    <linearGradient
       id="swatch2">
      <stop
         style="stop-color:#171408;stop-opacity:1;"
         offset="0"
         id="stop2" />
    </linearGradient>
    <linearGradient
       id="swatch1">
      <stop
         style="stop-color:#171408;stop-opacity:1;"
         offset="0"
         id="stop1" />
    </linearGradient>
    <clipPath
       clipPathUnits="userSpaceOnUse"
       id="clipPath53">
      <rect
         style="fill:#000000;fill-opacity:0.0218068;stroke:#000000;stroke-width:0.998051;stroke-opacity:1"
         id="rect54"
         width="511.00195"
         height="511.00195"
         x="0.49902534"
         y="0.49902534" />
    </clipPath>
  </defs>
  <g
     id="layer7"
     style="display:none;fill:#9e9e9e;fill-opacity:1;stroke:none;stroke-opacity:1"
     transform="translate(10.94998,11.250122)">
    <rect
       style="display:inline;fill:#f5f5f5;fill-opacity:1;stroke:none;stroke-width:6.972;stroke-linejoin:round;stroke-miterlimit:3.8;stroke-dasharray:none;stroke-opacity:1;paint-order:fill markers stroke"
       id="rect1"
       width="500"
       height="500"
       x="0.6394558"
       y="0" />
    <path
       style="display:none;fill:#9e9e9e;fill-opacity:1;stroke:none;stroke-width:4.7619;stroke-linejoin:round;stroke-miterlimit:3.8;stroke-opacity:1;paint-order:fill markers stroke"
       d="M 2.7210884,252.38095 V 4.0816327 H 249.65986 496.59864 V 252.38095 500.68027 H 249.65986 2.7210884 Z M 180.39748,482.30998 c 11.17378,-0.80574 18.16067,-2.80556 23.68415,-6.77897 7.86993,-5.66138 13.43334,-9.19904 20.01427,-12.7267 8.1486,-4.36798 10.30407,-6.28099 10.84485,-9.62495 1.05284,-6.51033 8.99751,-18.48548 12.26381,-18.48548 3.22423,0 9.25749,6.18605 12.71673,13.03877 1.09091,2.16108 1.98347,4.57033 1.98347,5.35389 0,3.46641 3.58079,6.09429 8.31148,6.09968 3.32342,0.004 6.54439,2.29664 8.06943,5.74425 1.66974,3.77473 4.50718,6.18339 7.92862,6.7305 1.46689,0.23457 4.75859,1.8002 7.31488,3.47918 8.07182,5.30159 16.73848,7.37931 30.96063,7.42238 5.05102,0.0153 10.92499,-0.35851 13.05327,-0.83069 4.55458,-1.01047 8.29249,-3.31705 8.57952,-5.29421 0.30034,-2.06894 -3.8899,-5.41796 -10.7093,-8.55935 -21.71266,-10.00202 -34.46833,-17.68951 -43.77825,-26.38395 -6.47056,-6.04279 -14.44385,-16.49064 -17.86031,-23.4034 -2.49715,-5.05263 -3.02214,-8.14773 -2.25413,-13.28939 0.21099,-1.41251 -0.0958,-1.73315 -2.05071,-2.14295 -4.39443,-0.92122 -4.01986,-4.52641 0.38444,-3.70016 1.23998,0.23262 2.25451,0.24013 2.25451,0.0167 0,-0.22344 -0.68687,-1.59973 -1.52639,-3.05842 -2.05492,-3.5705 -3.65608,-4.20754 -8.3804,-3.3342 -2.648,0.48951 -6.00951,0.48321 -11.01579,-0.0206 -8.88537,-0.89425 -14.24682,-0.92649 -14.76456,-0.0888 -0.21631,0.34999 0.40033,1.42996 1.37029,2.39992 1.45055,1.45056 1.68244,2.15261 1.30649,3.95549 -1.55672,7.46532 -13.91516,23.51636 -29.23453,37.9696 -11.41822,10.77264 -17.58556,15.10662 -22.53807,15.8382 -1.5456,0.22831 -5.58108,1.48524 -8.96774,2.79317 -3.38666,1.30793 -10.38738,3.60876 -15.55717,5.11296 -10.90601,3.17321 -17.10483,5.99967 -19.56169,8.91948 -1.85972,2.21015 -2.22519,5.04491 -0.87071,6.75356 4.56157,5.75426 16.41156,7.65334 38.02891,6.09452 z m -69.33107,-47.57737 c 23.55272,-0.82524 26.34856,-1.26352 26.34856,-4.13047 0,-1.45541 3.55254,-3.57085 7.38757,-4.39909 5.76089,-1.24417 14.07911,-5.95541 25.54185,-14.4663 4.0142,-2.98047 8.73194,-6.09414 10.48388,-6.91927 5.07553,-2.39048 5.17492,-2.46272 6.24656,-4.54009 1.39981,-2.71354 1.28139,-16.70892 -0.19259,-22.76048 -1.61585,-6.63405 -3.6547,-11.64361 -5.58242,-13.71633 -2.86996,-3.08585 -6.03126,-3.59043 -22.45628,-3.58429 -17.17936,0.006 -19.23978,0.48277 -26.23989,6.06643 -5.10672,4.0734 -7.55566,7.73926 -7.95643,11.91012 -0.27778,2.89092 -0.0924,3.56669 1.38339,5.04247 2.68469,2.68469 6.44682,3.34562 15.93041,2.79862 7.21596,-0.4162 8.60826,-0.32598 10.10513,0.65481 4.24299,2.78012 3.40293,7.62797 -2.30115,13.27957 -7.06934,7.00428 -19.33784,11.9053 -34.98524,13.97589 -10.16458,1.34505 -30.280651,-5.67056 -43.968427,-15.33428 -6.327303,-4.46714 -13.165943,-11.42798 -15.049042,-15.31795 -1.653169,-3.41499 -1.95732,-9.68243 -0.707765,-14.58449 0.873261,-3.42584 9.432931,-22.29908 12.495346,-27.55102 6.155135,-10.55585 16.110808,-20.83878 27.452359,-28.35477 8.700139,-5.76553 15.449309,-11.69407 22.344709,-19.62782 6.62017,-7.61707 10.32448,-13.05256 11.2813,-16.55348 0.39952,-1.46185 2.04269,-4.04629 3.69714,-5.81503 4.09193,-4.3746 4.65243,-6.09133 3.29865,-10.10325 -2.42857,-7.19708 -8.58549,-17.1151 -14.66784,-23.62801 -5.57206,-5.96652 -12.20971,-11.26492 -24.357551,-19.44304 C 87.151544,211.27112 76.139687,202.7061 71.693211,198.25963 61.500435,188.06685 54.296695,155.29441 58.99178,140.47619 c 5.348206,-16.87955 21.808825,-30.50844 41.82988,-34.63386 6.55258,-1.35018 17.74977,-1.37334 24.00827,-0.0496 14.63883,3.09615 27.55102,14.51002 27.55102,24.35401 0,5.08082 -1.66436,5.49549 -9.86394,2.45755 -4.98307,-1.84623 -13.86537,-2.16639 -16.94563,-0.6108 -3.72534,1.88137 -4.73245,4.10668 -5.03989,11.13615 -0.16932,3.87138 0.039,7.3418 0.52999,8.82953 2.22159,6.73151 11.49496,15.37247 19.56206,18.228 10.96886,3.88268 25.12624,-2.69895 35.54364,-16.52389 5.03074,-6.67628 11.91814,-20.10351 12.79961,-24.95328 0.82819,-4.55662 0.15516,-8.47839 -3.15311,-18.37313 -6.14164,-18.369106 -10.28339,-22.819126 -23.98853,-25.773976 -5.03559,-1.085681 -9.28374,-1.22649 -36.31495,-1.203694 -35.321023,0.02978 -36.289499,0.14687 -47.95918,5.798061 -18.933147,9.168626 -27.498787,17.400329 -36.628794,35.200799 -9.595827,18.70867 -11.788243,28.89155 -9.296672,43.17928 2.898168,16.61932 12.959343,37.28 25.604326,52.57863 4.622732,5.59284 8.176828,8.27996 13.858555,10.47793 15.123769,5.85061 31.159615,18.99189 36.707595,30.08167 2.07433,4.14634 2.40805,5.47804 2.40805,9.60926 0,3.50044 -0.3907,5.60295 -1.44644,7.78381 -2.41887,4.99674 -4.98952,6.69406 -36.30866,23.97362 -22.627532,12.48418 -34.704798,22.27128 -39.977982,32.39709 -4.520624,8.68071 -5.558874,14.65018 -5.546041,31.88723 0.01205,16.18122 1.175109,26.0281 3.646483,30.8724 5.739762,11.25086 31.294378,31.52604 46.595546,36.96918 4.704511,1.67355 6.16447,1.89992 10.24798,1.58896 2.619048,-0.19944 13.262194,-0.66045 23.651444,-1.02446 z m 311.86884,-1.03855 c 10.05916,-3.17769 26.71675,-14.60922 38.6612,-26.53186 7.87959,-7.8652 9.31514,-10.40596 10.96516,-19.4071 1.66907,-9.10505 1.68021,-34.83835 0.0183,-42.17687 -3.8486,-16.99384 -14.8023,-27.91486 -44.34857,-44.21629 -31.31913,-17.27956 -33.88979,-18.97689 -36.30866,-23.97362 -1.05574,-2.18086 -1.44644,-4.28337 -1.44644,-7.78381 0,-7.10705 3.07179,-12.8837 11.18443,-21.03284 8.31757,-8.355 17.49618,-14.43679 28.1486,-18.65138 4.48148,-1.77308 6.48362,-3.05056 9.61847,-6.13711 10.427,-10.26636 21.51265,-28.88658 26.53824,-44.57542 5.44045,-16.98398 5.32944,-29.17676 -0.39172,-43.02326 -6.20781,-15.0243 -12.49194,-25.44766 -19.58081,-32.4783 -5.81545,-5.767676 -10.99252,-9.238982 -21.84374,-14.646588 -12.65779,-6.307891 -13.02413,-6.355632 -48.97959,-6.383136 -27.0533,-0.02069 -31.27702,0.119885 -36.33026,1.209197 -13.89122,2.994483 -18.57874,8.369708 -24.90616,28.560067 -2.15254,6.86859 -2.47854,8.73855 -2.26402,12.98657 0.22442,4.44422 0.68317,5.84442 4.39182,13.4046 7.21862,14.71538 15.91965,24.35982 26.40269,29.26542 9.07308,4.24581 16.93698,3.28716 25.98219,-3.16736 4.7447,-3.38575 9.83726,-9.61038 11.17247,-13.65612 0.48805,-1.4788 0.69986,-4.94548 0.53394,-8.73903 -0.30797,-7.04149 -1.21007,-9.10759 -4.81901,-11.03701 -3.29689,-1.7626 -11.90568,-1.53787 -17.17046,0.44822 -8.08136,3.04862 -9.86395,2.59948 -9.86395,-2.48531 0,-9.01628 10.0105,-18.73903 24.14966,-23.4555 4.1722,-1.39174 6.06768,-1.58823 15.30612,-1.58663 12.35936,0.002 17.46523,1.14179 27.55102,6.14957 14.52515,7.21198 24.47772,19.34038 27.32961,33.30439 2.2436,10.98557 -1.38542,31.52532 -7.95597,45.02971 -3.12899,6.43098 -3.80662,7.30869 -9.33298,12.08874 -5.83064,5.04322 -13.00707,10.32731 -28.74814,21.16754 -8.7832,6.04864 -19.47752,16.225 -23.42036,22.28604 -4.96496,7.63227 -8.55243,15.44774 -8.55243,18.63188 0,2.58016 0.40173,3.3927 3.10761,6.28551 1.70918,1.82725 3.70664,4.89883 4.43881,6.82571 1.74239,4.58561 4.56714,8.70878 11.18454,16.32555 6.86576,7.90266 13.38214,13.62589 22.1919,19.49078 11.34351,7.55168 21.48083,17.90796 27.1994,27.78691 3.41056,5.89181 11.96182,24.63851 12.87764,28.23129 1.27537,5.00337 0.94756,11.16503 -0.78434,14.74267 -1.95048,4.02917 -9.89812,11.97371 -16.10889,16.10262 -14.22555,9.45713 -32.20081,15.48902 -42.97749,14.42183 -14.22076,-1.40827 -29.30085,-7.67385 -35.81289,-14.8798 -4.75026,-5.25643 -5.24113,-9.84209 -1.32802,-12.40606 1.49687,-0.9808 2.88917,-1.07101 10.10513,-0.65481 9.48359,0.54699 13.24572,-0.11393 15.93042,-2.79863 1.48162,-1.48162 1.66168,-2.1462 1.37888,-5.08932 -0.412,-4.2878 -3.00068,-7.98334 -8.62792,-12.31706 -6.52491,-5.02503 -9.35821,-5.62951 -26.24417,-5.59917 -16.55054,0.0297 -18.99664,0.49949 -22.09246,4.24259 -4.4492,5.37944 -7.89502,22.69649 -6.33198,31.82149 0.41963,2.44973 1.11606,4.87953 1.54764,5.39956 0.43158,0.52002 2.67582,1.83929 4.98721,2.93172 2.31138,1.09243 7.96908,4.7721 12.57267,8.17704 9.85284,7.28745 16.37086,11.0085 22.92236,13.08607 6.55045,2.07723 8.50341,3.1607 8.50341,4.71756 0,0.72552 0.61694,1.64931 1.37098,2.05286 1.95571,1.04667 13.50598,1.97176 26.18004,2.09683 5.98639,0.0591 13.02721,0.32733 15.64626,0.59614 8.58207,0.88082 11.0552,0.7341 16.47266,-0.97728 z M 251.76924,342.08293 c 5.70571,-1.91035 8.95131,-6.10891 8.7943,-11.37646 -0.0517,-1.7355 -0.0933,-3.7309 -0.0923,-4.43423 0.002,-1.54189 2.43843,-4.27083 5.00497,-5.60604 2.43293,-1.26572 2.37253,-2.49144 -0.17007,-3.45117 -1.59128,-0.60064 -2.04081,-1.18555 -2.04081,-2.65544 0,-5.32462 7.9326,-14.6254 17.0068,-19.94006 13.81914,-8.09372 30.71271,-23.56196 35.5165,-32.51993 1.40218,-2.61474 1.96215,-5.19889 2.84301,-13.12001 1.34293,-12.07622 1.35761,-16.0019 0.0824,-22.02102 -1.97423,-9.31835 -6.8574,-17.13948 -17.68119,-28.31911 -14.72296,-15.207 -31.54452,-37.9056 -34.61382,-46.70707 -0.50111,-1.43696 -1.12486,-5.52083 -1.3861,-9.07525 -1.17589,-15.9985 -5.97914,-25.15934 -13.19591,-25.16752 -2.98014,-0.003 -5.50511,1.37933 -8.42919,4.61594 -4.50995,4.99198 -7.35555,12.4191 -11.38341,29.71115 -3.12171,13.40188 -5.97169,16.88183 -35.14637,42.9153 -24.72583,22.06361 -27.82549,25.74388 -29.89059,35.48949 -1.13825,5.37162 -1.27436,15.52682 -0.26672,19.89972 2.49107,10.81066 10.05703,19.45332 29.19768,33.35274 16.50814,11.98775 25.23683,20.52903 31.22815,30.55767 3.48982,5.84147 10.03936,13.54808 13.39193,15.75782 1.46236,0.96386 4.03638,2.64176 5.72005,3.72867 2.87038,1.85298 2.9552,1.99127 1.36055,2.21827 -3.80817,0.54207 -5.30146,3.94839 -2.56972,5.86177 1.79649,1.25831 3.58571,1.33413 6.71991,0.28477 z m 3.27089,-258.619597 c 5.33965,-3.15019 10.61307,-8.478626 11.17316,-11.289728 0.90226,-4.528429 14.73834,-16.51868 28.86212,-25.011708 10.96519,-6.593675 20.97148,-9.430617 42.73252,-12.115343 21.77183,-2.686057 25.73025,-4.490021 25.31831,-11.538252 -0.29937,-5.12212 -1.98116,-5.753503 -17.36074,-6.517635 -24.26732,-1.205715 -50.07251,1.053022 -66.53583,5.823905 -12.31043,3.567426 -19.51965,7.970855 -24.5184,14.97598 -3.24886,4.55286 -6.54424,7.107407 -9.16862,7.107407 -2.50519,0 -7.19936,-2.594868 -11.04345,-6.104646 -8.26187,-7.543357 -15.3754,-10.581777 -33.41832,-14.274071 -15.72557,-3.218069 -22.08303,-3.487035 -32.45617,-1.373122 -8.43487,1.718916 -13.75251,3.681477 -16.41082,6.056679 -1.81978,1.625981 -1.96216,2.01398 -1.23652,3.369838 1.69036,3.158464 5.07334,4.822223 28.58213,14.056756 21.14718,8.306868 33.12034,14.80557 44.81743,24.325668 12.12708,9.870082 22.12954,15.85398 25.24173,15.100694 0.95803,-0.231884 3.3977,-1.398476 5.42147,-2.592422 z"
       id="path2" />
  </g>
  <g
     id="layer8"
     transform="translate(10.94998,11.250122)">
    <rect
       style="fill:#000000;fill-opacity:1;stroke:#000000;stroke-width:10.848;stroke-linejoin:round;stroke-miterlimit:3.8;stroke-dasharray:none;stroke-opacity:1;paint-order:fill markers stroke"
       id="rect2"
       width="511.85199"
       height="511.85199"
       x="-5.52598"
       y="-5.8261223"
       rx="77.013" />
  </g>
  <g
     id="layer6"
     style="display:inline"
     transform="translate(10.94998,11.250122)">
    <path
       d="m 238.72193,392.19444 c -2.1867,0.10825 -3.07346,0.46551 -2.13418,1.045 5.05412,3.1184 4.05916,6.95877 -5.35588,20.66438 -9.66347,14.06773 -36.25885,38.65882 -41.80706,38.65882 -2.03035,0 -6.40948,1.25545 -9.73297,2.79068 -3.32352,1.53517 -12.61417,4.51662 -20.6487,6.62636 -19.94011,5.23596 -23.18212,15.2636 -6.27342,19.40794 3.82795,0.93826 15.21375,1.3291 25.30444,0.86982 13.74699,-0.62572 20.72681,-2.74765 27.83968,-8.45664 5.22108,-4.1906 13.80156,-9.52491 19.06501,-11.85736 5.2634,-2.33249 9.56985,-5.81889 9.56985,-7.74386 0,-6.37884 8.63347,-20.14427 12.64886,-20.16902 4.88182,-0.031 15.19082,13.52193 15.19082,19.9697 0,2.75684 3.05572,4.7478 7.28615,4.7478 4.35905,0 8.01877,2.48467 9.10773,6.18541 1.00101,3.40198 3.87115,6.1854 6.38217,6.1854 2.51103,0 6.67328,1.87143 9.25046,4.16186 10.42547,9.26528 51.49248,9.75189 51.49248,0.61006 0,-2.20685 -7.43841,-6.88883 -16.52979,-10.40766 -9.09139,-3.51882 -23.81639,-12.08077 -32.71975,-19.02134 -15.57034,-12.13777 -29.60381,-34.48873 -25.42681,-40.49512 1.10492,-1.58885 0.34814,-2.88732 -1.67879,-2.88732 -2.02696,0 -3.68389,-1.34846 -3.68389,-2.99606 0,-1.64757 2.34897,-2.19323 5.21993,-1.21414 0.25404,0.0867 0.50307,0.15741 0.74766,0.21741 -0.0965,-0.16824 -0.18894,-0.34198 -0.27873,-0.52551 -0.41641,-0.8507 -0.80892,-1.71409 -1.3322,-2.51886 -0.45501,-0.86858 -0.96343,-1.73234 -1.57684,-2.5249 -0.95845,-0.24403 -1.6995,-0.63308 -2.08661,-1.09936 -0.6368,0.0217 -1.27474,0.0498 -1.90992,0.0906 -0.0596,0.0155 -0.11096,0.0278 -0.15623,0.0361 -0.67464,0.27092 -1.61171,-0.0457 -2.24974,0.27773 -0.48147,0.11597 -0.95173,0.15276 -1.42734,0.15091 0.0245,0.75755 -3.61984,0.50083 -12.16624,-0.33221 -4.25673,-0.41494 -7.74341,-0.55538 -9.93015,-0.44703 z"
       style="display:inline;fill:#ffffff;stroke:none;stroke-width:1.881;stroke-dasharray:none;stroke-opacity:1"
       id="path1-18" />
  </g>
  <g
     id="g1"
     style="display:inline"
     transform="translate(10.94998,11.250122)">
    <path
       id="path1"
       style="display:inline;fill:#ffffff;stroke:none;stroke-width:1.96162;stroke-dasharray:none;stroke-opacity:1"
       d="m 256.51499,143.93555 c -6.88861,0.17896 -14.59957,9.774 -18.57795,29.06515 -4.53567,21.9929 -4.33399,21.73193 -40.72119,53.7208 -24.69975,21.71379 -27.85482,25.87184 -29.3944,38.70316 -2.54437,21.20543 4.41972,32.67859 31.20185,51.38373 15.41051,10.76292 26.63533,21.71234 31.95322,31.17542 4.50881,8.02336 12.33417,16.58688 17.38712,19.03031 5.05297,2.4434 7.14483,4.50236 4.6498,4.57332 -2.495,0.0709 -4.53639,1.58368 -4.53639,3.35756 0,4.88158 9.40819,3.85739 14.48104,-1.57485 2.46373,-2.63823 3.54883,-6.95106 2.40994,-9.58758 -1.15202,-2.66808 0.67432,-6.21843 4.12529,-8.00645 3.41014,-1.76691 4.38716,-3.25961 2.16894,-3.31349 -8.85794,-0.21544 -0.12629,-16.40091 12.61687,-23.38944 17.64115,-9.67486 40.21141,-31.59519 40.7708,-39.59765 0.24787,-3.54779 1.10665,-11.5303 1.90669,-17.73894 0.80001,-6.2086 -0.55192,-15.64251 -2.99826,-20.96418 -4.21437,-9.16774 -6.80347,-12.74198 -15.85611,-21.88392 -18.313,-18.49365 -37.85051,-46.30118 -37.85051,-53.86571 0,-20.80114 -6.40368,-31.27778 -13.73675,-31.08724 z m -5.26649,64.59347 c 0.20395,0.006 0.37579,0.0456 0.51036,0.11967 1.67298,0.91883 4.03691,6.08954 5.25226,11.48998 1.21532,5.40049 5.09981,10.72221 8.63334,11.82386 10.51539,3.2785 30.01106,21.23234 30.01106,27.63521 0,9.09682 -13.65305,30.85235 -21.78883,34.72195 -6.71216,3.1925 -7.25042,2.42695 -7.35748,-10.37502 -0.10742,-12.85287 -0.48858,-13.38139 -5.44367,-7.55921 -2.93052,3.44336 -5.33026,9.5213 -5.33026,13.51207 0,3.99111 -1.67234,8.17876 -3.72126,9.30416 -2.04897,1.12539 -3.27378,4.42618 -2.72183,7.33243 1.25999,6.63456 -10.07432,9.09946 -12.80113,2.78431 -1.10681,-2.56331 -8.56282,-7.93048 -16.57199,-11.93097 -21.32578,-10.65197 -28.21409,-28.61084 -18.40077,-47.98836 4.89158,-9.65892 43.40255,-41.07237 49.7302,-40.8701 z"
       clip-path="url(#clipPath53)"
       transform="matrix(0.95890044,0,0,0.95890044,5.7009025,-20.136834)" />
    <rect
       style="display:none;fill:#800000;fill-opacity:0.0218068;stroke:#800000;stroke-width:6.998;stroke-linecap:butt;stroke-linejoin:round;stroke-dasharray:none;stroke-opacity:1;paint-order:fill markers stroke"
       id="rect55"
       width="509.00195"
       height="509.00195"
       x="0.49902153"
       y="0.49902153" />
  </g>
  <g
     id="layer4"
     style="display:none"
     transform="translate(10.94998,11.250122)">
    <path
       d="m 383.08039,79.304836 c -6.49137,0.01262 -13.67834,0.306641 -19.99619,0.881903 -38.00434,3.460361 -60.81492,24.419561 -59.19326,54.394151 1.16942,21.61456 8.11311,27.23032 33.6781,27.23032 22.79393,0 26.61747,-3.21454 21.04967,-17.68037 -3.34845,-8.69965 -6.68091,-9.53136 -23.33339,-5.81694 -6.62382,1.47748 -8.80865,0.7597 -8.80865,-2.88734 0,-16.53268 24.01944,-34.42774 49.99722,-37.25139 17.36586,-1.88758 36.30422,6.80218 51.58767,23.67247 8.71381,9.61861 10.29364,14.48267 12.04393,37.11248 1.80822,23.37904 1.2611,26.88153 -5.32191,34.23121 -8.01267,8.94587 -34.55309,25.39875 -61.53136,38.13934 -23.91298,11.29295 -26.40509,18.51158 -21.38952,61.92056 0.95169,8.23695 13.06059,18.61514 33.05959,28.33571 27.55939,13.39529 30.62932,17.81163 31.25167,44.92879 0.51899,22.61433 0.0661,24.13928 -9.36596,31.19286 -5.45469,4.07906 -17.08277,9.20247 -25.83462,11.38016 -14.27681,3.55243 -17.0898,3.3454 -27.36389,-1.98728 -6.29813,-3.26899 -11.96256,-8.30228 -12.58767,-11.18691 -0.94801,-4.37479 1.7967,-5.24308 16.52301,-5.24308 9.71024,0 17.65126,-0.63096 17.65126,-1.4014 0,-3.4866 -8.91275,-18.92963 -12.10506,-20.97242 -6.34627,-4.06101 -38.28501,-2.53225 -45.88516,2.19872 -6.27152,3.90379 -7.17833,7.10451 -6.18507,21.90867 0.63963,9.53416 3.06734,19.37814 5.39663,21.87246 3.62215,3.87872 17.09081,10.16333 37.89891,17.68641 10.8777,3.93277 57.26424,-0.11783 69.30693,-6.05253 28.4041,-13.99742 35.08841,-24.8549 35.01706,-56.88886 -0.051,-23.00359 -10.20469,-38.03874 -38.23874,-56.62916 -12.33918,-8.18259 -23.25256,-15.83702 -24.25098,-17.00988 -0.99838,-1.17288 -4.74035,-3.56276 -8.31928,-5.30956 -4.37872,-2.13711 -6.78551,-7.19518 -7.35412,-15.46352 -1.40781,-20.47159 3.79677,-26.57278 36.77065,-43.13475 26.2772,-13.19837 39.86387,-24.34662 47.55715,-39.01522 4.30646,-8.21059 7.82992,-16.39942 7.82992,-18.19384 0,-1.79442 1.94159,-6.02605 4.31597,-9.40497 3.43612,-4.88978 3.43612,-7.39647 0,-12.28624 -2.37438,-3.37889 -4.31597,-9.82794 -4.31597,-14.32794 0,-7.99999 -10.13859,-25.43191 -20.77101,-35.71713 -7.47616,-7.23201 -37.65357,-19.999133 -52.9674,-22.410025 -3.53123,-0.55591 -9.32477,-0.82821 -15.81613,-0.815459 z"
       style="display:inline;fill:#800000;stroke-width:3.28063"
       id="path1-1" />
  </g>
  <g
     id="layer3"
     style="display:inline"
     transform="translate(10.94998,11.250122)">
    <path
       d="m 126.91412,83.202509 c -37.313618,0.144528 -39.430578,0.513707 -56.175478,9.858006 -16.93661,9.451255 -23.45637,17.390065 -34.62287,42.168305 -6.74307,14.96292 -6.8226,27.48277 -0.29906,47.00069 6.13287,18.34748 23.85815,44.04449 32.30516,46.83761 21.18049,7.0036 42.648378,26.94114 42.581918,39.54673 -0.0672,12.69084 -1.41437,13.9663 -32.223608,30.49214 -43.95174,23.57536 -51.82453,34.03073 -51.62165,68.56505 0.0747,12.70355 1.951,26.22841 4.17323,30.05723 5.14272,8.86061 22.28923,23.52498 37.96689,32.46738 6.69927,3.82119 15.31161,6.2756 19.13977,5.45452 3.82795,-0.82102 16.838268,-1.50952 28.913578,-1.53426 13.29725,-0.0247 21.13142,-1.22619 19.867,-3.04439 -1.14824,-1.65114 2.28436,-3.94538 7.62601,-5.09815 5.3417,-1.15268 15.59315,-6.76038 22.77605,-12.4614 7.18292,-5.70107 14.51735,-10.36538 16.29869,-10.36538 8.16225,0 4.19375,-35.93361 -4.51983,-40.93006 -2.17939,-1.24971 -11.69151,-2.29479 -21.13804,-2.31954 -12.89439,-0.0355 -19.18304,1.62632 -25.22973,6.67469 -14.48546,12.09401 -8.93961,22.17279 10.39235,18.88849 12.83204,-2.18004 16.20975,6.3997 6.23265,15.83802 -7.92444,7.4965 -28.44659,14.07673 -40.5497,12.99902 -13.128818,-1.16908 -30.977298,-8.92252 -42.418768,-18.42937 -5.86153,-4.87044 -10.06136,-9.87857 -11.70334,-13.6691 -1.77918,-6.36487 -0.9011,-11.33522 1.4062,-18.33319 8.68869,-16.55614 11.51384,-34.78162 42.48675,-53.94112 10.445218,-6.46131 29.579628,-28.07118 29.579628,-33.40364 0,-1.55676 2.28583,-4.85833 5.07724,-7.33914 4.44717,-3.95229 4.01837,-6.39175 -3.446,-19.70388 -6.12779,-10.9285 -14.85042,-19.3283 -31.088528,-29.92437 -12.41565,-8.10174 -25.61594,-18.51983 -29.32815,-23.153 -7.85584,-9.80492 -14.25182,-37.32334 -11.89439,-51.17465 5.98814,-35.18397 56.613228,-53.691485 85.829898,-31.3801 11.45109,8.74467 13.50472,25.58746 2.48083,20.34422 -9.07196,-4.31488 -20.11505,-4.04431 -23.32659,0.57384 -1.4448,2.07755 -2.30305,7.99236 -1.90992,13.14399 0.80234,10.5141 15.46016,23.25895 26.74539,23.24968 12.3858,-0.0101 26.44017,-11.15653 35.15983,-27.88268 8.21593,-15.75982 8.33234,-16.91257 3.28967,-32.32845 -8.37555,-25.604755 -13.29194,-27.920147 -58.83308,-27.743741 z"
       style="display:inline;fill:#ffffff;fill-opacity:1;stroke:none;stroke-width:1.881;stroke-dasharray:none;stroke-opacity:1"
       id="path1-3" />
    <path
       d="m 373.79505,82.550603 c 37.31362,0.144528 39.43058,0.513707 56.17548,9.858006 16.93661,9.451261 23.45637,17.390071 34.62287,42.168311 6.74307,14.96292 6.8226,27.48277 0.29906,47.00069 -6.13287,18.34748 -23.85815,44.04449 -32.30516,46.83761 -21.18049,7.0036 -42.64838,26.94114 -42.58192,39.54673 0.0672,12.69084 1.41437,13.9663 32.22361,30.49214 43.95174,23.57536 51.82453,34.03073 51.62165,68.56505 -0.0747,12.70355 -1.951,26.22841 -4.17323,30.05723 -5.14272,8.86061 -22.28923,23.52498 -37.96689,32.46738 -6.69927,3.82119 -15.31161,6.2756 -19.13977,5.45452 -3.82795,-0.82102 -16.83827,-1.50952 -28.91358,-1.53426 -13.29725,-0.0247 -21.13142,-1.22619 -19.867,-3.04439 1.14824,-1.65114 -2.28436,-3.94538 -7.62601,-5.09815 -5.3417,-1.15268 -15.59315,-6.76038 -22.77605,-12.4614 -7.18292,-5.70107 -14.51735,-10.36538 -16.29869,-10.36538 -8.16225,0 -4.19375,-35.93361 4.51983,-40.93006 2.17939,-1.24971 11.69151,-2.29479 21.13804,-2.31954 12.89439,-0.0355 19.18304,1.62632 25.22973,6.67469 14.48546,12.09401 8.93961,22.17279 -10.39235,18.88849 -12.83204,-2.18004 -16.20975,6.3997 -6.23265,15.83802 7.92444,7.4965 28.44659,14.07673 40.5497,12.99902 13.12882,-1.16908 30.9773,-8.92252 42.41877,-18.42937 5.86153,-4.87044 10.06136,-9.87857 11.70334,-13.6691 1.77918,-6.36487 0.9011,-11.33522 -1.4062,-18.33319 -8.68869,-16.55614 -11.51384,-34.78162 -42.48675,-53.94112 -10.44522,-6.46131 -29.57963,-28.07118 -29.57963,-33.40364 0,-1.55676 -2.28583,-4.85833 -5.07724,-7.33914 -4.44717,-3.95229 -4.01837,-6.39175 3.446,-19.70388 6.12779,-10.9285 14.85042,-19.3283 31.08853,-29.92437 12.41565,-8.10174 25.61594,-18.51983 29.32815,-23.153 7.85584,-9.80492 14.25182,-37.32334 11.89439,-51.17465 -5.98814,-35.18397 -56.61323,-53.691491 -85.8299,-31.3801 -11.45109,8.74467 -13.50472,25.58746 -2.48083,20.34422 9.07196,-4.31488 20.11505,-4.04431 23.32659,0.57384 1.4448,2.07755 2.30305,7.99236 1.90992,13.14399 -0.80234,10.5141 -15.46016,23.25895 -26.74539,23.24968 -12.3858,-0.0101 -26.44017,-11.15653 -35.15983,-27.88268 -8.21593,-15.75982 -8.33234,-16.91257 -3.28967,-32.32845 8.37555,-25.604761 13.29194,-27.920153 58.83308,-27.743747 z"
       style="display:inline;fill:#ffffff;fill-opacity:1;stroke:none;stroke-width:1.881;stroke-dasharray:none;stroke-opacity:1"
       id="path1-3-3" />
  </g>
  <g
     id="layer5"
     transform="translate(8.9499798,11.250122)"
     style="display:inline">
    <path
       d="m 348.6733,17.231934 c -47.08947,-1.90201 -81.95977,5.74236 -91.11102,19.97573 -6.83369,10.62878 -12.20372,10.72038 -22.97994,0.38659 -4.66847,-4.47678 -14.37731,-9.28501 -21.57982,-10.68554 -7.2025,-1.40054 -17.13691,-3.42428 -22.07599,-4.49409 -11.57864,-2.50797 -38.00086,3.7892 -38.00086,9.05463 0,2.22758 6.65543,6.4583 14.78983,9.40496 28.42062,10.29529 45.14265,18.48281 55.78126,27.31488 5.89611,4.89488 13.91881,10.89182 17.828,13.32521 3.90919,2.43339 7.97747,4.42765 9.03972,4.42765 4.55238,0 17.3998,-9.95994 17.3998,-13.48831 0,-4.9567 19.11408,-20.84929 34.79956,-28.93371 6.69893,-3.45268 21.05483,-7.15023 31.89738,-8.215 25.59148,-2.51318 30.74187,-4.44644 30.74187,-11.54933 0,-4.82884 -2.89594,-5.97298 -16.52979,-6.52367 z"
       style="display:inline;fill:#ffffff;fill-opacity:1;stroke:none;stroke-width:1.881;stroke-dasharray:none;stroke-opacity:1"
       id="path1-36" />
  </g>
</svg>
