<?xml version="1.0" encoding="UTF-8" standalone="no"?>
<!-- Created with Inkscape (http://www.inkscape.org/) -->

<svg
   version="1.1"
   id="svg1"
   width="512"
   height="512"
   viewBox="0 0 512 512"
   sodipodi:docname="semops-red2.svg"
   inkscape:version="1.4.2 (2aeb623e1d, 2025-05-12)"
   xmlns:inkscape="http://www.inkscape.org/namespaces/inkscape"
   xmlns:sodipodi="http://sodipodi.sourceforge.net/DTD/sodipodi-0.dtd"
   xmlns="http://www.w3.org/2000/svg"
   xmlns:svg="http://www.w3.org/2000/svg">
  <defs
     id="defs1">
    <clipPath
       clipPathUnits="userSpaceOnUse"
       id="clipPath53">
      <rect
         style="fill:#000000;fill-opacity:0.0218068;stroke:#000000;stroke-width:0.998051;stroke-opacity:1"
         id="rect54"
         width="511.00195"
         height="511.00195"
         x="0.49902534"
         y="0.49902534" />
    </clipPath>
  </defs>
  <sodipodi:namedview
     id="namedview1"
     pagecolor="#ffffff"
     bordercolor="#000000"
     borderopacity="0.25"
     inkscape:showpageshadow="2"
     inkscape:pageopacity="0.0"
     inkscape:pagecheckerboard="0"
     inkscape:deskcolor="#d1d1d1"
     showgrid="true"
     inkscape:zoom="1.1089975"
     inkscape:cx="256.08713"
     inkscape:cy="260.14485"
     inkscape:window-width="1920"
     inkscape:window-height="1011"
     inkscape:window-x="0"
     inkscape:window-y="32"
     inkscape:window-maximized="1"
     inkscape:current-layer="g1"
     inkscape:document-units="px"
     showborder="false">
    <inkscape:grid
       id="grid53"
       units="px"
       originx="0"
       originy="0"
       spacingx="1"
       spacingy="1"
       empcolor="#0099e5"
       empopacity="0.30196078"
       color="#0099e5"
       opacity="0.14901961"
       empspacing="5"
       enabled="true"
       visible="true" />
  </sodipodi:namedview>
  <g
     inkscape:groupmode="layer"
     id="layer1"
     inkscape:label="Image 1">
    <g
       inkscape:groupmode="layer"
       id="layer2"
       inkscape:label="circle"
       transform="translate(-34.277264,-6.3142329)" />
  </g>
  <g
     inkscape:groupmode="layer"
     inkscape:label="Image"
     id="g1">
    <path
       id="path1"
       style="display:inline;fill:#800000;stroke-width:3.42124"
       d="m 526.37355,-50.764512 c -0.27364,0.14704 -0.56244,0.284118 -0.86474,0.415761 0.83336,-0.03849 1.64792,-0.07307 2.4383,-0.113403 -0.52347,-0.101863 -1.04907,-0.203937 -1.57356,-0.302369 z m -534.6845987,5.568618 c -0.4508465,0.0135 -0.9028708,0.03034 -1.3538331,0.04406 0.039317,0.04106 0.082363,0.07832 0.1204899,0.119695 0.4071793,-0.05645 0.8163989,-0.110336 1.233331,-0.163785 z M 354.62861,3.3405414 c -49.10778,-1.9835322 -85.47266,5.9884853 -95.01614,20.8319206 -7.12659,11.084336 -12.72679,11.179865 -23.96489,0.403159 -4.86856,-4.668669 -14.99354,-9.682975 -22.50475,-11.143534 -7.51121,-1.46057 -17.87142,-3.5710498 -23.02219,-4.6867135 -12.07492,-2.6154686 -39.62963,3.9516035 -39.62963,9.4427185 0,2.323055 6.94069,6.735108 15.42374,9.808071 29.63876,10.736559 47.07752,19.275004 58.17211,28.485623 6.14883,5.104684 14.51539,11.358659 18.59213,13.896348 4.07674,2.537686 8.31939,4.617419 9.42717,4.617419 4.7475,0 18.14558,-10.386834 18.14558,-14.06643 0,-5.169148 19.93333,-21.742913 36.29111,-30.173847 6.98605,-3.600662 21.95726,-7.456694 33.26453,-8.567106 26.68836,-2.620893 32.05951,-4.637014 32.05951,-12.044343 0,-5.0358056 -3.02007,-6.2289933 -17.23828,-6.8032856 z m 50.86431,79.1449316 c -6.7696,0.01316 -14.26461,0.319784 -20.85325,0.919702 -39.63325,3.608681 -63.42151,25.466225 -61.73035,56.725555 1.21954,22.54099 8.46085,28.39744 35.12158,28.39744 23.77091,0 27.75833,-3.35232 21.95189,-18.43817 -3.49197,-9.07253 -6.96727,-9.93988 -24.33349,-6.06626 -6.90772,1.54081 -9.1862,0.79226 -9.1862,-3.01109 0,-17.24129 25.04894,-35.90336 52.14016,-38.84804 18.11018,-1.96848 37.86026,7.09374 53.79877,24.68711 9.0873,10.03087 10.73484,15.10341 12.56015,38.70316 1.88572,24.38109 1.31515,28.0337 -5.55001,35.6984 -8.3561,9.3293 -36.03408,26.48737 -64.16867,39.77404 -24.93791,11.77697 -27.53684,19.305 -22.3063,64.57454 0.99249,8.59 13.62039,19.41301 34.47657,29.55021 28.74061,13.96943 31.94212,18.57506 32.59115,46.85449 0.54123,23.58361 0.0689,25.17392 -9.7674,32.52982 -5.68848,4.25389 -17.81495,9.5969 -26.94192,11.86793 -14.88873,3.70469 -17.82229,3.48879 -28.53674,-2.07246 -6.56807,-3.4091 -12.47528,-8.65812 -13.12719,-11.66639 -0.98864,-4.5623 1.87371,-5.46781 17.23121,-5.46781 10.12643,0 18.40781,-0.658 18.40781,-1.46146 0,-3.63604 -9.29476,-19.74098 -12.6239,-21.87132 -6.61827,-4.23507 -39.92595,-2.64079 -47.85185,2.29296 -6.54032,4.07111 -7.486,7.40901 -6.45017,22.8477 0.66705,9.9428 3.19881,20.2087 5.62794,22.80993 3.7774,4.04497 17.82334,10.59895 39.5233,18.44447 11.34393,4.10134 59.71865,-0.12288 72.2775,-6.31194 29.62154,-14.59737 36.59234,-25.92021 36.51794,-59.32718 -0.0532,-23.98955 -10.64208,-39.66913 -39.8777,-59.05635 -12.86805,-8.53331 -24.24919,-16.51582 -25.2904,-17.73895 -1.04118,-1.22315 -4.94353,-3.71546 -8.67586,-5.53713 -4.5664,-2.22871 -7.07634,-7.50358 -7.66932,-16.12631 -1.46816,-21.34902 3.9595,-27.71171 38.34668,-44.98355 27.40347,-13.76407 41.57248,-25.39014 49.5955,-40.68746 4.49104,-8.5625 8.16552,-17.10231 8.16552,-18.97364 0,-1.87134 2.02481,-6.28434 4.50096,-9.80808 3.58339,-5.09936 3.58339,-7.71349 0,-12.81285 -2.47615,-3.52371 -4.50096,-10.24917 -4.50096,-14.94205 0,-8.34288 -10.57314,-26.52195 -21.66128,-37.248 -7.7966,-7.541997 -39.26744,-20.856331 -55.23764,-23.370557 -3.68258,-0.579737 -9.72444,-0.863708 -16.49403,-0.85041 z m -296.2193,10.406509 c -38.91293,0.150722 -41.120622,0.535725 -58.583224,10.280528 -17.662534,9.85636 -24.461744,18.13543 -36.106844,43.9757 -7.0320951,15.60424 -7.1150287,28.66071 -0.311886,49.01519 6.395731,19.13387 24.880739,45.93229 33.689794,48.84512 22.088311,7.30378 44.476338,28.09587 44.407033,41.24175 -0.07008,13.23478 -1.474991,14.56491 -33.604754,31.79907 -45.83556,24.58582 -54.0457819,35.48932 -53.8342045,71.50382 0.077851,13.24804 2.0346229,27.35259 4.3521015,31.34552 5.36314,9.24039 23.244563,24.53329 39.59419,33.85897 6.986412,3.98497 15.967886,6.54458 19.960121,5.68831 3.992025,-0.85621 17.559969,-1.57422 30.152846,-1.60002 13.867187,-0.0258 22.037137,-1.27875 20.718527,-3.17488 -1.19746,-1.72191 2.38227,-4.11448 7.95287,-5.31666 5.57065,-1.20209 16.26149,-7.05014 23.75225,-12.99551 7.49079,-5.94543 15.13958,-10.80966 16.99728,-10.80966 8.51209,0 4.37349,-37.47376 -4.71356,-42.68436 -2.2728,-1.30328 -12.19262,-2.39315 -22.04404,-2.41896 -13.44706,-0.037 -20.00525,1.69602 -26.3111,6.96077 -15.10633,12.61238 -9.32278,23.12314 10.83777,19.69807 13.38204,-2.27347 16.90452,6.674 6.49979,16.51686 -8.26409,7.81781 -29.66584,14.68007 -42.287705,13.55617 -13.691537,-1.21918 -32.305021,-9.30495 -44.236883,-19.21927 -6.11277,-5.07919 -10.492609,-10.30198 -12.204958,-14.25497 -1.855439,-6.63768 -0.939723,-11.82106 1.466469,-19.11897 9.061094,-17.26576 12.007334,-36.2724 44.307774,-56.2531 10.892923,-6.73825 30.847453,-29.27435 30.847453,-34.83536 0,-1.62349 2.3838,-5.06656 5.29485,-7.6537 4.63779,-4.12169 4.19061,-6.66571 -3.59369,-20.54842 C 105.88145,254.89709 96.784961,246.13726 79.850866,235.08703 66.903067,226.63804 53.136992,215.77342 49.265673,210.94167 41.073132,200.7165 34.403007,172.01861 36.861476,157.57362 c 6.244798,-36.692 59.039737,-55.99277 89.508674,-32.72509 11.94189,9.11948 14.08354,26.68417 2.58716,21.2162 -9.4608,-4.49983 -20.97721,-4.21766 -24.3264,0.59843 -1.50672,2.1666 -2.40176,8.33492 -1.99178,13.70736 0.83673,10.96474 16.1228,24.25585 27.89173,24.24618 12.91667,-0.0105 27.57343,-11.63471 36.66682,-29.07776 8.56808,-16.4353 8.68947,-17.63746 3.43067,-33.71408 C 161.89381,95.122647 156.7667,92.708015 109.27362,92.891982 Z m 147.24137,51.043568 c -6.88861,0.17896 -14.59957,9.774 -18.57795,29.06515 -4.53567,21.9929 -4.33399,21.73193 -40.72119,53.7208 -24.69975,21.71379 -27.85482,25.87184 -29.3944,38.70316 -2.54437,21.20543 4.41972,32.67859 31.20185,51.38373 15.41051,10.76292 26.63533,21.71234 31.95322,31.17542 4.50881,8.02336 12.33417,16.58688 17.38712,19.03031 5.05297,2.4434 7.14483,4.50236 4.6498,4.57332 -2.495,0.0709 -4.53639,1.58368 -4.53639,3.35756 0,4.88158 9.40819,3.85739 14.48104,-1.57485 2.46373,-2.63823 3.54883,-6.95106 2.40994,-9.58758 -1.15202,-2.66808 0.67432,-6.21843 4.12529,-8.00645 3.41014,-1.76691 4.38716,-3.25961 2.16894,-3.31349 -8.85794,-0.21544 -0.12629,-16.40091 12.61687,-23.38944 17.64115,-9.67486 40.21141,-31.59519 40.7708,-39.59765 0.24787,-3.54779 1.10665,-11.5303 1.90669,-17.73894 0.80001,-6.2086 -0.55192,-15.64251 -2.99826,-20.96418 -4.21437,-9.16774 -6.80347,-12.74198 -15.85611,-21.88392 -18.313,-18.49365 -37.85051,-46.30118 -37.85051,-53.86571 0,-20.80114 -6.40368,-31.27778 -13.73675,-31.08724 z m -5.26649,64.59347 c 0.20395,0.006 0.37579,0.0456 0.51036,0.11967 1.67298,0.91883 4.03691,6.08954 5.25226,11.48998 1.21532,5.40049 5.09981,10.72221 8.63334,11.82386 10.51539,3.2785 30.01106,21.23234 30.01106,27.63521 0,9.09682 -13.65305,30.85235 -21.78883,34.72195 -6.71216,3.1925 -7.25042,2.42695 -7.35748,-10.37502 -0.10742,-12.85287 -0.48858,-13.38139 -5.44367,-7.55921 -2.93052,3.44336 -5.33026,9.5213 -5.33026,13.51207 0,3.99111 -1.67234,8.17876 -3.72126,9.30416 -2.04897,1.12539 -3.27378,4.42618 -2.72183,7.33243 1.25999,6.63456 -10.07432,9.09946 -12.80113,2.78431 -1.10681,-2.56331 -8.56282,-7.93048 -16.57199,-11.93097 -21.32578,-10.65197 -28.21409,-28.61084 -18.40077,-47.98836 4.89158,-9.65892 43.40255,-41.07237 49.7302,-40.8701 z M -64.987591,390.2398 c -0.05425,0.0344 -0.108258,0.0666 -0.163015,0.10059 0.0532,0.33524 0.1029,0.67275 0.155945,1.00789 0.0012,-0.36997 0.0059,-0.73868 0.0069,-1.10869 z m 299.671161,24.95798 c -2.28042,0.11289 -3.20519,0.48546 -2.22565,1.08979 5.27074,3.25205 4.23314,7.25703 -5.58544,21.55007 -10.07766,14.67069 -37.81295,40.31579 -43.59896,40.31579 -2.11737,0 -6.6842,1.30926 -10.15014,2.91029 -3.46596,1.60097 -13.15482,4.7102 -21.53372,6.91037 -20.79477,5.46038 -24.17573,15.91782 -6.54231,20.23979 3.99202,0.97847 15.86583,1.38606 26.38902,0.9071 14.3362,-0.65254 21.61518,-2.86542 29.03292,-8.8191 5.44486,-4.37022 14.39311,-9.93316 19.88216,-12.36558 5.48899,-2.43247 9.98002,-6.0683 9.98002,-8.07577 0,-6.65225 9.00351,-21.00768 13.19101,-21.03349 5.09106,-0.0323 15.84191,14.10149 15.84191,20.82562 0,2.875 3.18669,4.9513 7.59845,4.9513 4.54588,0 8.36246,2.59117 9.49809,6.45052 1.04392,3.5478 4.03707,6.45052 6.65572,6.45052 2.61866,0 6.9593,1.95164 9.64694,4.34024 10.87232,9.6624 53.69951,10.16987 53.69951,0.63621 0,-2.30144 -7.75723,-7.1841 -17.23827,-10.85375 -9.48106,-3.66964 -24.83719,-12.59856 -34.12216,-19.83661 -16.2377,-12.65801 -30.87266,-35.96696 -26.51663,-42.23079 1.15228,-1.65695 0.36306,-3.01107 -1.75075,-3.01107 -2.11383,0 -3.84178,-1.40626 -3.84178,-3.12448 0,-1.71819 2.44965,-2.28723 5.44366,-1.26618 0.26493,0.0904 0.52463,0.16416 0.77971,0.22673 -0.10062,-0.17545 -0.19704,-0.35664 -0.29068,-0.54803 -0.43426,-0.88717 -0.84359,-1.78756 -1.3893,-2.62682 -0.47451,-0.90581 -1.00472,-1.8066 -1.64443,-2.63313 -0.99953,-0.25448 -1.77234,-0.66021 -2.17604,-1.14648 -0.66409,0.0226 -1.32938,0.0519 -1.99178,0.0945 -0.0621,0.0162 -0.11572,0.029 -0.16293,0.0377 -0.70355,0.28253 -1.68079,-0.0477 -2.34616,0.28963 -0.50211,0.12094 -0.99253,0.15931 -1.48852,0.15738 0.0255,0.79002 -3.77499,0.5223 -12.6877,-0.34645 -4.43918,-0.43272 -8.0753,-0.57918 -10.35577,-0.46619 z m 133.44081,125.30653 c -0.80912,0.14449 -1.23822,0.28414 -1.31132,0.40944 l -0.006,0.006 v 0.006 c -3.3e-4,0.002 4e-5,0.0162 0,0.0193 v 0.006 0.006 0.006 0.006 l 0.006,0.006 0.006,0.006 v 0.006 h 0.006 v 0.006 c 0.14335,0.1448 0.7996,0.27769 1.91379,0.38426 -0.20034,-0.29481 -0.40665,-0.58778 -0.61667,-0.8756 z m 182.99378,30.72818 c 0.029,0.85605 0.0602,1.66758 0.0922,2.43155 0.0643,-0.0105 0.12703,-0.0193 0.19127,-0.0323 -0.0987,-0.80015 -0.18944,-1.60234 -0.28345,-2.40005 z m -636.540776,3.54023 c -0.273634,0.13547 -0.550954,0.27899 -0.808045,0.43464 -0.218977,0.13159 -0.437162,0.71327 -0.389844,0.85041 0.03524,-0.002 0.07105,-0.0105 0.106285,-0.013 0.455664,-0.34103 0.777445,-0.81518 1.091561,-1.27246 z m 631.104176,35.16293 c -0.011,0.16222 -0.0255,0.33007 -0.0498,0.48504 l 1.52393,0.0193 c -0.49345,-0.16546 -0.98656,-0.33672 -1.47431,-0.50395 z"
       sodipodi:nodetypes="sccsssccssssssssssssssssssssssssssssssssssssssssssscsssssscsssssssssscscssssscssssscsssssssssssscssssscssssscssssssscsccssssssscssssssssssssssscccscccsssssssscsssssssssssscccccccccsccccccsccccccccccccscccsccccccccccc"
       clip-path="url(#clipPath53)"
       transform="matrix(0.88062286,0,0,0.88062286,30.560546,30.560546)" />
    <rect
       style="display:inline;fill:#800000;fill-opacity:0.0218068;stroke:#800000;stroke-width:11.7741;stroke-linecap:butt;stroke-linejoin:round;stroke-dasharray:none;stroke-opacity:1;paint-order:fill markers stroke"
       id="rect55"
       width="496.22589"
       height="496.22589"
       x="7.4870501"
       y="7.7870502" />
  </g>
</svg>
